{
	"asset":{
		"generator":"Khronos glTF Blender I/O v3.6.28",
		"version":"2.0"
	},
	"extensionsUsed":[
		"KHR_materials_ior"
	],
	"scene":0,
	"scenes":[
		{
			"name":"Scene",
			"nodes":[
				0
			]
		}
	],
	"nodes":[
		{
			"mesh":0,
			"name":"lgiht01",
			"scale":[
				0.02539999969303608,
				0.02539999969303608,
				0.02539999969303608
			]
		}
	],
	"materials":[
		{
			"doubleSided":true,
			"extensions":{
				"KHR_materials_specular":{
					"specularColorFactor":[
						0,
						0,
						0
					]
				},
				"KHR_materials_ior":{
					"ior":1.4500000476837158
				}
			},
			"name":"03 - Default",
			"pbrMetallicRoughness":{
				"baseColorTexture":{
					"index":0
				},
				"metallicFactor":0,
				"roughnessFactor":0.858578622341156
			}
		}
	],
	"meshes":[
		{
			"name":"Mesh",
			"primitives":[
				{
					"attributes":{
						"POSITION":0,
						"NORMAL":1,
						"TEXCOORD_0":2
					},
					"indices":3,
					"material":0
				}
			]
		}
	],
	"textures":[
		{
			"sampler":0,
			"source":0
		}
	],
	"images":[
		{
			"bufferView":4,
			"mimeType":"image/png",
			"name":"light01"
		}
	],
	"accessors":[
		{
			"bufferView":0,
			"componentType":5126,
			"count":2677,
			"max":[
				102.57667541503906,
				116.87326049804688,
				37.00721740722656
			],
			"min":[
				-37.0072135925293,
				0,
				-49.79271697998047
			],
			"type":"VEC3"
		},
		{
			"bufferView":1,
			"componentType":5126,
			"count":2677,
			"type":"VEC3"
		},
		{
			"bufferView":2,
			"componentType":5126,
			"count":2677,
			"type":"VEC2"
		},
		{
			"bufferView":3,
			"componentType":5123,
			"count":7422,
			"type":"SCALAR"
		}
	],
	"bufferViews":[
		{
			"buffer":0,
			"byteLength":32124,
			"byteOffset":0,
			"target":34962
		},
		{
			"buffer":0,
			"byteLength":32124,
			"byteOffset":32124,
			"target":34962
		},
		{
			"buffer":0,
			"byteLength":21416,
			"byteOffset":64248,
			"target":34962
		},
		{
			"buffer":0,
			"byteLength":14844,
			"byteOffset":85664,
			"target":34963
		},
		{
			"buffer":0,
			"byteLength":51820,
			"byteOffset":100508
		}
	],
	"samplers":[
		{
			"magFilter":9729,
			"minFilter":9987
		}
	],
	"buffers":[
		{
			"byteLength":152328,
			"uri":"data:application/octet-stream;base64,"
		}
	]
}
