<svg width="69" height="75" viewBox="0 0 69 75" fill="none" xmlns="http://www.w3.org/2000/svg">
<path d="M0 75C2.01049 71.9429 4.58452 70.3125 7.87442 70.1427C10.1895 70.0238 12.4437 70.5673 14.6979 71.0938C15.4747 71.2806 16.2971 71.3145 17.0892 71.3485C18.0792 71.3995 18.9626 71.0258 19.6632 70.2785C20.5466 69.3444 21.5518 68.8519 22.7703 68.8859C22.8922 68.8859 22.9988 68.8689 23.1206 68.8689C24.1716 68.784 24.7808 68.3424 25.0854 67.0347C26.1364 62.517 27.3701 58.0673 28.4819 53.5836C28.8322 52.1909 28.9846 50.7303 29.2435 49.2357C28.2992 49.2357 27.431 49.2357 26.5019 49.2357C26.5019 48.4035 26.5019 47.6393 26.5019 46.7901C27.4919 46.7901 28.4972 46.7901 29.5633 46.7901C29.6852 45.9579 29.807 45.1936 29.9441 44.3444C29.1521 44.3444 28.4058 44.3444 27.6138 44.3444C27.6138 43.4952 27.6138 42.714 27.6138 41.8648C28.4972 41.8648 29.3806 41.8648 30.3097 41.8648C30.8427 38.3152 31.3606 34.8505 31.8937 31.3689C31.9546 31.3689 32.0003 31.3519 32.0612 31.3519C32.5791 34.8336 33.1122 38.2982 33.6452 41.8308C34.5439 41.8308 35.4273 41.8308 36.3564 41.8308C36.3564 42.68 36.3564 43.4613 36.3564 44.3105C35.5796 44.3105 34.8333 44.3105 34.0108 44.3105C34.1326 45.1597 34.2545 45.9409 34.3763 46.7731C35.412 46.7731 36.4173 46.7731 37.4682 46.7731C37.4682 47.6053 37.4682 48.3526 37.4682 49.2018C36.6153 49.2018 35.7319 49.2018 34.7876 49.2018C35.1531 53.4986 36.5544 57.4049 37.4682 61.464C38.3973 61.3791 39.037 60.8696 39.7072 60.3601C40.6058 59.6637 40.9256 58.8145 40.8495 57.5917C40.7429 56.0802 40.819 54.5686 40.819 52.9722C42.266 52.9722 43.7129 52.9722 45.1903 52.9722C45.1903 50.4755 45.1903 48.0469 45.1903 45.5673C44.5049 45.5673 43.8195 45.5673 43.0884 45.5673C43.0884 44.7351 43.0884 43.9538 43.0884 43.0876C43.7738 43.0876 44.4745 43.0876 45.2056 43.0876C45.2056 42.2385 45.2056 41.4912 45.2056 40.642C44.5202 40.642 43.8195 40.642 43.0732 40.642C43.0732 39.7758 43.0732 38.9946 43.0732 38.1624C43.7738 38.1624 44.4592 38.1624 45.1903 38.1624C45.1903 34.8675 45.1903 31.6236 45.1903 28.3288C44.5049 28.3288 43.8195 28.3288 43.0884 28.3288C43.0884 25.8492 43.0884 23.4375 43.0884 20.9239C43.7738 20.9239 44.4745 20.9239 45.2056 20.9239C45.2056 19.6671 45.2056 18.4952 45.2056 17.2385C44.5202 17.2385 43.8195 17.2385 43.0732 17.2385C43.0732 16.3723 43.0732 15.591 43.0732 14.7418C44.1851 14.7418 45.2665 14.7418 46.424 14.7418C46.7743 9.79959 47.1094 4.92527 47.4445 0C48.1756 0 48.8762 0 49.653 0C49.9881 4.87432 50.3232 9.74864 50.6735 14.6909C51.7853 14.6909 52.882 14.6909 54.0243 14.6909C54.0243 15.5401 54.0243 16.3213 54.0243 17.1535C53.3389 17.1535 52.6535 17.1535 51.9224 17.1535C51.9224 18.3933 51.9224 19.5822 51.9224 20.856C52.6078 20.856 53.3084 20.856 54.0395 20.856C54.0395 23.3356 54.0395 25.7473 54.0395 28.2269C53.3541 28.2269 52.6535 28.2269 51.9072 28.2269C51.9072 31.5557 51.9072 34.7996 51.9072 38.0944C52.6078 38.0944 53.2932 38.0944 54.0243 38.0944C54.0243 38.9266 54.0243 39.7079 54.0243 40.5741C53.3237 40.5741 52.623 40.5741 51.9072 40.5741C51.9072 41.4232 51.9072 42.1705 51.9072 43.0197C52.6078 43.0197 53.3084 43.0197 54.0395 43.0197C54.0395 43.8689 54.0395 44.6162 54.0395 45.4654C53.3541 45.4654 52.6687 45.4654 51.9224 45.4654C51.9224 47.962 51.9224 50.3906 51.9224 52.8702C53.3541 52.8702 54.7706 52.8702 56.2632 52.8702C56.2632 54.1101 56.2632 55.2989 56.2632 56.5897C60.4975 56.4878 64.488 57.3879 68.4023 59.0693C68.4023 64.3512 68.4023 69.6501 68.4023 75C45.6473 75 22.8922 75 0 75Z" fill="#222222"/>
<path d="M14.4069 24.5583C12.1832 24.5583 9.94422 24.5753 7.7205 24.5583C6.56295 24.5414 5.63386 23.5903 5.51201 22.3674C5.39016 21.1446 6.09079 19.9897 7.18742 19.735C7.61388 19.6331 8.10128 19.735 8.54297 19.8369C9.25883 19.9897 9.73099 19.8029 9.97469 19.0556C10.3859 17.8158 11.1322 17.2044 12.305 17.1874C12.8533 17.1874 13.1732 16.7968 13.356 16.2363C13.95 14.4361 15.0618 13.502 16.5545 13.502C18.0319 13.502 19.159 14.453 19.7073 16.2024C19.9205 16.8647 20.3013 17.1704 20.941 17.2044C22.9058 17.2723 24.307 18.9028 24.2613 20.9918C24.2157 23.0298 22.7535 24.5753 20.8191 24.5753C18.6868 24.5753 16.5392 24.5583 14.4069 24.5583Z" fill="#222222"/>
<path d="M20.2266 12.4319C20.3027 12.3979 20.3941 12.313 20.5007 12.313C21.6735 12.33 22.0086 11.6166 22.1457 10.3938C22.3437 8.50863 23.882 7.23485 25.5726 7.33676C27.2328 7.43866 28.5427 8.89926 28.695 10.8184C28.7711 11.8374 29.0453 12.1601 29.9592 12.262C31.1776 12.4149 32.0458 13.4849 32.0153 14.7926C31.9849 16.1173 31.0253 17.1533 29.7612 17.1873C28.4361 17.2043 27.0957 17.2043 25.7706 17.1703C25.5574 17.1703 25.2832 17.0344 25.1309 16.8476C24.278 15.8116 23.2728 15.1323 22.0391 14.8435C21.8563 14.7926 21.643 14.6737 21.5364 14.5209C21.0643 13.8415 20.653 13.1282 20.2266 12.4319Z" fill="#222222"/>
</svg>
