<svg width="358" height="58" viewBox="0 0 358 58" fill="none" xmlns="http://www.w3.org/2000/svg">
<path fill-rule="evenodd" clip-rule="evenodd" d="M88.0023 40.7049L85.5176 55.1746C88.7818 55.9053 92.1678 56.4656 95.6755 56.8554C99.1833 57.2451 102.837 57.44 106.637 57.44C108.148 57.44 109.828 57.3913 111.68 57.2938C113.58 57.2451 115.456 57.0746 117.307 56.7823C119.158 56.49 120.912 56.0515 122.569 55.4669C124.225 54.8335 125.614 53.9809 126.734 52.9091C128.098 51.5937 129.267 49.6693 130.242 47.1359C131.216 44.6025 131.703 41.4844 131.703 37.7818C131.703 35.1997 131.362 32.9099 130.68 30.9124C130.047 28.9149 128.926 27.1853 127.319 25.7238C125.76 24.2622 123.689 23.0929 121.107 22.216C118.525 21.2903 115.309 20.6326 111.461 20.2428L105.176 19.6582V15.3466C107.466 15.0542 110.243 14.9081 113.507 14.9081C116.771 14.9081 121.131 15.3466 126.588 16.2235L128.78 2.19236C122.495 0.730788 115.48 0 107.734 0C103.836 0 100.523 0.316674 97.7948 0.950022C95.1153 1.58337 92.9229 2.67956 91.2177 4.23857C89.5126 5.74887 88.2702 7.77072 87.4907 10.3041C86.7112 12.7888 86.3214 15.9068 86.3214 19.6582C86.3214 22.3865 86.6138 24.7737 87.1984 26.8199C87.8317 28.8174 88.8548 30.547 90.2677 32.0085C91.7293 33.4214 93.6537 34.542 96.0409 35.3702C98.4282 36.1984 101.4 36.783 104.957 37.1241L112.849 37.7818V42.1665C111.534 42.3614 110.023 42.5075 108.318 42.605C106.662 42.6537 104.737 42.6781 102.545 42.6781C98.2089 42.6781 93.3614 42.0204 88.0023 40.7049ZM182.42 40.7049L179.936 55.1746C183.2 55.9053 186.586 56.4656 190.094 56.8554C193.601 57.2451 197.255 57.44 201.055 57.44C202.566 57.44 204.246 57.3913 206.098 57.2938C207.998 57.2451 209.874 57.0746 211.725 56.7823C213.576 56.49 215.33 56.0515 216.987 55.4669C218.643 54.8335 220.032 53.9809 221.152 52.9091C222.516 51.5937 223.685 49.6693 224.66 47.1359C225.634 44.6025 226.121 41.4844 226.121 37.7818C226.121 35.1997 225.78 32.9099 225.098 30.9124C224.465 28.9149 223.344 27.1853 221.737 25.7238C220.178 24.2622 218.107 23.0929 215.525 22.216C212.943 21.2903 209.727 20.6326 205.879 20.2428L199.594 19.6582V15.3466C201.884 15.0542 204.661 14.9081 207.925 14.9081C211.189 14.9081 215.549 15.3466 221.006 16.2235L223.198 2.19236C216.913 0.730788 209.898 0 202.152 0C198.254 0 194.941 0.316674 192.213 0.950022C189.533 1.58337 187.341 2.67956 185.636 4.23857C183.931 5.74887 182.688 7.77072 181.909 10.3041C181.129 12.7888 180.739 15.9068 180.739 19.6582C180.739 22.3865 181.032 24.7737 181.616 26.8199C182.25 28.8174 183.273 30.547 184.686 32.0085C186.147 33.4214 188.072 34.542 190.459 35.3702C192.846 36.1984 195.818 36.783 199.375 37.1241L207.267 37.7818V42.1665C205.952 42.3614 204.441 42.5075 202.736 42.605C201.08 42.6537 199.155 42.6781 196.963 42.6781C192.627 42.6781 187.779 42.0204 182.42 40.7049ZM231.408 1.31445H248.947V42.4579H255.159C257.4 42.4579 258.91 42.1656 259.69 41.5809C260.518 40.9963 260.932 39.7296 260.932 37.7808V1.31445H278.471V32.0807C278.471 36.7577 278.154 40.704 277.521 43.9194C276.936 47.1349 275.767 49.7658 274.013 51.812C272.308 53.8095 269.921 55.2467 266.851 56.1236C263.782 57.0006 259.812 57.439 254.94 57.439C250.068 57.439 246.097 57.0006 243.028 56.1236C239.958 55.2467 237.547 53.8095 235.793 51.812C234.088 49.8145 232.919 47.208 232.285 43.9925C231.701 40.7283 231.408 36.7577 231.408 32.0807V1.31445ZM333.686 56.1236L324.186 37.8539C329.642 35.0769 332.371 29.3037 332.371 20.5342C332.371 7.72103 326.086 1.31445 313.516 1.31445H285.893V56.1236H303.432V39.827H307.232L314.393 56.1236H333.686ZM303.432 15.3456H307.451C309.595 15.3456 311.129 15.5648 312.055 16.0033C313.029 16.4418 313.516 17.4405 313.516 18.9995V22.6535C313.516 24.2125 313.029 25.2113 312.055 25.6497C311.129 26.0882 309.595 26.3074 307.451 26.3074H303.432V15.3456ZM339.846 56.1236H357.385V1.31445H339.846V56.1236ZM177.332 1.31445V15.3456H164.616V56.1236H147.077V15.3456H134.361V1.31445H177.332ZM76.3279 22.7266V35.4423H58.7889V42.0925H80.2741V56.1236H41.25V1.31445H79.8356L77.6433 15.3456H58.7889V22.7266H76.3279ZM32.447 35.8077V22.7266H17.5389V15.3456H33.7624L35.9548 1.31445H0V56.1236H17.5389V35.8077H32.447Z" fill="#222222" fill-opacity="0.1"/>
</svg>
