<svg width="463" height="464" viewBox="0 0 463 464" fill="none" xmlns="http://www.w3.org/2000/svg">
<path d="M157.5 204.561C156.2 206.261 155.2 207.061 154.5 207.061C153.8 207.061 153.2 207.261 152.5 207.561C151.5 208.261 150.7 209.061 150 210.061C147.7 212.061 140.7 216.861 129 224.561C117 232.561 110.2 236.761 108.5 237.061C107.5 237.361 106.5 237.861 105.5 238.561C104.2 239.261 103.2 239.861 102.5 240.561C101.8 241.261 100.5 242.261 98.5 243.561L96 245.061L93 247.061C87.7 250.761 84.5 253.061 83.5 254.061L78 257.061L72.5 260.061L66.5 263.061C56.8 268.361 55.7 270.261 63 268.561L68 267.561C66 269.261 62.5 271.361 57.5 274.061L52 277.061L47 280.561C44 282.561 40.8 284.261 37.5 285.561C34.8 286.561 32 287.261 29 287.561C23.7 288.561 21 289.361 21 290.061C21 290.761 20.5 291.061 19.5 291.061C19.2 291.061 18.8 290.761 18.5 290.061V288.561L19.5 287.061C19.8 286.761 20.3 286.561 21 286.561C21.3 286.861 21.7 286.861 22 286.561C22.3 285.861 22.5 285.361 22.5 285.061C22.5 282.761 20.7 282.561 17 284.561L15 286.061L13 287.061C11.3 287.761 10.3 287.861 10 287.561L12 283.561C13.3 281.261 13.7 280.061 13 280.061C11.7 280.061 11 280.761 11 282.061C11 283.761 10.3 283.561 9 281.561L7.5 279.561L7 278.061C7 277.061 5.8 276.861 3.5 277.561C1.2 277.861 0 276.761 0 274.061C0 272.761 1.2 271.361 3.5 270.061L7 268.561L9.5 266.561C11.8 264.261 13.7 263.061 15 263.061C16.3 263.061 17 262.761 17 262.061C17.3 261.061 21.5 258.761 29.5 255.061C32.5 253.761 35.3 252.361 38 251.061C40.7 249.761 42.3 249.061 43 249.061C44.3 248.361 46.2 247.061 48.5 245.061L52 242.561L55 240.061C60.7 235.761 64 233.861 65 234.561C65.7 234.861 65.8 234.861 65.5 234.561C64.8 233.561 66.5 231.361 70.5 228.061C74.8 225.061 77.5 223.861 78.5 224.561C79.2 224.861 81.5 223.861 85.5 221.561C89.2 218.861 91 217.061 91 216.061C91.7 214.761 89 216.561 83 221.561C81 223.561 79.7 224.261 79 223.561C78.3 222.861 80.8 220.761 86.5 217.061C92.2 213.361 95.8 211.361 97.5 211.061C98.2 211.061 98.7 210.761 99 210.061L100 209.061C100.3 208.061 100.8 207.761 101.5 208.061C102.2 208.061 103.5 207.061 105.5 205.061L107.5 202.561C108.2 201.861 108.8 201.561 109.5 201.561C110.2 201.561 110.8 201.361 111.5 201.061L112.5 199.561C113.5 198.261 114.5 197.761 115.5 198.061C116.5 198.761 118 197.761 120 195.061C121.3 192.761 120.7 190.061 118 187.061C113 181.361 110 175.361 109 169.061C107.7 162.061 106.5 159.061 105.5 160.061C103.5 160.761 102.5 157.561 102.5 150.561C102.5 147.861 104 146.761 107 147.061C109.7 147.361 110.8 146.861 110.5 145.561C109.8 144.261 110.5 144.061 112.5 145.061C114.2 146.061 116.5 146.261 119.5 145.561C122.5 145.261 123.5 144.561 122.5 143.561C121.2 142.261 119.3 141.261 117 140.561L114 140.061L110.5 139.061C104.5 138.061 100.7 136.361 99 134.061C97.3 131.761 95 130.261 92 129.561C89 128.861 86.8 129.361 85.5 131.061C84.5 132.061 83.5 132.061 82.5 131.061C80.5 129.361 94 116.061 123 91.0611C134 81.7611 138 77.7611 135 79.0611C132.7 80.0611 131.3 80.3611 131 80.0611C141.7 73.3611 150.2 67.8611 156.5 63.5611C169.2 55.2611 164.5 57.5611 142.5 70.5611C135.8 74.2611 133 75.3611 134 74.0611C135.3 72.3611 139.7 69.2611 147 64.5611C160.3 55.8611 179 45.8611 203 34.5611C240 17.2611 267.9 6.56111 286.5 2.56111C295.8 0.561112 305 -0.238888 314 0.0611124C323 0.0611124 328.3 1.26111 330 3.56111C331 5.26111 332.5 6.06111 334.5 6.06111C336.2 6.06111 338.7 8.36111 342 13.0611C347.3 20.7611 348.5 27.3611 345.5 33.0611C344.2 35.7611 340.3 39.5611 334 44.5611C328 49.2611 323.5 52.0611 320.5 53.0611C319.5 53.3611 318.5 53.8611 317.5 54.5611L316 57.0611C314.3 58.7611 312.2 59.5611 309.5 59.5611C306.8 59.5611 301.5 60.8611 293.5 63.5611C290.5 64.8611 287.7 65.8611 285 66.5611C282.3 67.2611 280.8 67.3611 280.5 67.0611C279.8 66.7611 279.7 66.8611 280 67.5611C280.7 68.8611 282.7 69.3611 286 69.0611C289.3 68.7611 292.3 67.8611 295 66.5611C297.7 64.8611 299.7 64.0611 301 64.0611C301.7 64.3611 301.3 65.0611 300 66.0611C299 66.3611 298.2 66.7611 297.5 67.0611C296.2 67.7611 295.3 68.2611 295 68.5611C294.7 68.8611 286.8 72.7611 271.5 80.0611C272.2 80.7611 275.8 80.2611 282.5 78.5611C288.5 76.8611 294 75.0611 299 73.0611C310.3 68.0611 317.8 66.2611 321.5 67.5611C322.8 68.2611 324.3 69.0611 326 70.0611L328.5 71.5611L330 73.0611C332.3 75.3611 334 76.5611 335 76.5611C336.3 76.5611 338.2 78.8611 340.5 83.5611C342.8 88.2611 344.3 92.2611 345 95.5611C345.3 99.2611 344.2 102.061 341.5 104.061C339.8 105.061 338.5 105.861 337.5 106.561C335.8 107.261 334.5 107.761 333.5 108.061C329.8 108.761 322.3 111.761 311 117.061C299.3 122.361 293.3 125.761 293 127.061C292.7 127.361 292.2 127.761 291.5 128.061L289.5 128.561C288.8 128.561 288.2 128.761 287.5 129.061L286.5 130.061C285.5 130.761 284.5 130.761 283.5 130.061C282.5 129.061 281.2 128.861 279.5 129.561C277.8 129.861 276.7 130.861 276 132.561C275.3 134.561 274.5 135.261 273.5 134.561C272.2 133.861 272 134.061 273 135.061C273.7 135.361 275.5 135.861 278.5 136.561C281.8 137.261 285.2 137.761 288.5 138.061C302.8 139.761 314.5 141.361 323.5 143.061L329.5 144.061L360 111.061L356.5 107.561C355.2 105.861 353.5 102.861 351.5 98.5611C349.5 93.8611 348.5 90.8611 348.5 89.5611C348.5 89.2611 350 89.0611 353 89.0611C355 89.0611 356.2 88.8611 356.5 88.5611L357 87.5611V87.0611C357 85.7611 358.5 85.2611 361.5 85.5611C364.5 86.2611 367.8 85.8611 371.5 84.5611C373.5 83.8611 377.8 83.8611 384.5 84.5611C390.8 85.5611 395 86.5611 397 87.5611C397.7 87.8611 400.7 89.0611 406 91.0611C412 93.0611 418.8 97.7611 426.5 105.061L439 116.561V137.061L434 139.561C424 144.861 415.5 147.261 408.5 146.561C401.8 146.561 395.5 149.061 389.5 154.061L384.5 158.061L386.5 159.561L388.5 161.561C390.5 162.861 392.2 163.561 393.5 163.561C394.2 163.561 398.2 165.061 405.5 168.061C412.5 171.361 416.5 173.061 417.5 173.061C418.8 173.061 422.2 174.861 427.5 178.561C433.2 182.561 437.5 186.061 440.5 189.061C448.5 196.761 454.7 206.261 459 217.561C463.3 229.261 463.8 237.861 460.5 243.561C459.8 245.261 458 246.861 455 248.561C452.3 249.861 449.8 250.561 447.5 250.561C439.5 250.561 429.3 244.361 417 232.061C414.3 229.361 411.7 228.061 409 228.061C405.7 228.061 404 227.561 404 226.561C402.3 224.561 397.3 224.761 389 227.061C383.7 228.361 371.5 228.861 352.5 228.561C329.8 228.261 318.5 227.861 318.5 227.561C318.5 227.261 319.8 226.261 322.5 224.561L326.5 222.061C328.2 221.061 329.5 219.861 330.5 218.561C331.5 217.561 332.3 216.861 333 216.561C333.7 215.861 334.2 215.761 334.5 216.061C335.5 216.761 336.8 216.261 338.5 214.561C340.5 212.861 341.2 211.561 340.5 210.561L340 210.061C340.3 209.761 340.7 209.761 341 210.061C341.7 210.361 345 207.561 351 201.561C357 195.561 360.2 191.861 360.5 190.561C360.8 189.861 357.8 187.861 351.5 184.561C344.8 181.561 338.5 180.561 332.5 181.561C316.8 184.561 309 186.561 309 187.561C309 188.261 309.3 188.561 310 188.561C310.3 188.561 310.8 188.761 311.5 189.061C312.5 189.761 313.3 190.361 314 191.061C315 191.761 316 192.561 317 193.561C318.7 194.861 320 195.861 321 196.561C323.3 198.861 324 200.061 323 200.061C321.7 200.061 321.7 200.761 323 202.061C324 203.361 323.2 204.861 320.5 206.561C318.2 207.861 316.8 208.861 316.5 209.561C315.8 210.561 316.3 210.761 318 210.061C318.7 210.061 319.5 210.261 320.5 210.561C321.5 211.261 322.3 211.861 323 212.561C325 214.561 325 215.361 323 215.061C321 214.761 318 216.061 314 219.061C307 224.361 298.8 229.561 289.5 234.561C279.8 239.861 273.2 242.761 269.5 243.061C268.2 243.061 266.7 243.561 265 244.561L259.5 247.561C254.8 250.261 251.5 251.561 249.5 251.561C243.8 251.861 240.3 252.561 239 253.561C238.3 254.261 237 254.261 235 253.561L232.5 252.561C231.8 252.561 231 252.761 230 253.061C228.7 253.361 226.7 253.361 224 253.061C221.7 252.761 219.7 252.861 218 253.561H216L214 253.061C212.7 252.761 211.8 252.761 211.5 253.061C211.2 253.361 210.7 253.761 210 254.061C208.7 254.361 207.5 254.561 206.5 254.561C200.2 254.561 192.7 260.761 184 273.061C182.7 275.061 181.3 277.061 180 279.061C179 281.061 178.5 282.261 178.5 282.561C178.5 282.861 177.7 283.861 176 285.561C174 287.861 171.8 289.861 169.5 291.561C159.2 301.561 153.5 307.561 152.5 309.561C150.8 312.261 151.2 313.561 153.5 313.561C160.8 313.561 178.2 306.261 205.5 291.561C209.8 289.261 212.7 287.761 214 287.061C215.3 286.761 214.8 287.361 212.5 289.061C211.8 289.361 211.2 290.061 210.5 291.061C210.2 291.761 210 292.361 210 293.061C210 294.061 209 294.561 207 294.561C204 294.561 203 295.761 204 298.061C204 298.361 209.3 295.561 220 289.561L226 286.061C227.7 285.061 229.5 283.861 231.5 282.561L237 279.561C241 277.561 245 274.361 249 270.061L254.5 264.561L259.5 259.061C263.5 255.061 265.5 252.061 265.5 250.061C265.5 248.061 266 247.561 267 248.561C267.7 249.261 268.2 250.761 268.5 253.061L269 256.561L273 252.561C274.3 251.561 275.5 250.761 276.5 250.061C277.5 249.361 278.2 249.061 278.5 249.061C279.8 249.061 279.5 249.761 277.5 251.061C275.8 252.361 275.8 253.361 277.5 254.061C278.8 254.361 280 254.061 281 253.061C282 251.761 282.2 250.261 281.5 248.561C280.8 247.261 281.3 246.361 283 246.061H287C291.7 245.061 301.3 247.361 316 253.061C336 260.361 348.7 267.861 354 275.561C357.3 282.261 356.5 286.561 351.5 288.561C350.2 289.261 349 289.761 348 290.061L345.5 290.561C343.8 291.261 342.3 292.061 341 293.061C339.3 294.361 341 295.061 346 295.061L349.5 295.561L352.5 296.061C354.8 296.361 356.5 296.761 357.5 297.061C358.8 297.361 359.7 297.561 360 297.561C360.7 297.561 360.7 297.261 360 296.561C359.7 296.261 359.8 296.061 360.5 296.061C360.8 295.761 361.5 295.761 362.5 296.061L364.5 296.561L367.5 297.061C370.5 297.761 373 298.361 375 299.061C383.3 300.761 392.7 304.561 403 310.561C413 316.561 419.2 321.761 421.5 326.061C422.5 328.061 425 332.761 429 340.061C433.3 347.361 436.7 356.261 439 366.561C441.3 376.861 441.7 384.361 440 389.061C437 395.361 431.2 399.361 422.5 401.061C419.5 401.761 416.2 401.761 412.5 401.061C408.8 400.361 406.7 399.361 406 398.061C405.7 397.061 404 396.861 401 397.561C398.7 397.861 397.7 397.761 398 397.061C398.3 396.061 395.5 395.261 389.5 394.561C383.2 393.861 379.3 393.861 378 394.561C377.3 394.861 376.5 394.861 375.5 394.561C374.5 394.261 373.7 393.761 373 393.061C368.7 390.761 365 390.861 362 393.561C360.7 394.261 360.2 394.261 360.5 393.561C361.8 392.261 362.5 391.361 362.5 391.061C362.5 390.361 359.7 390.261 354 390.561C348 390.561 342.5 390.861 337.5 391.561C335.2 391.861 333.5 391.861 332.5 391.561L331.5 391.061L330.5 390.061C329.5 389.061 326.7 389.061 322 390.061L320.5 390.561L318.5 391.061L314 392.061C310.7 393.061 309 393.261 309 392.561C309 391.561 309.5 391.061 310.5 391.061C310.8 391.061 311.2 390.361 311.5 389.061L312.5 388.061C312.8 387.361 313.3 387.061 314 387.061C315.7 386.761 317.8 385.261 320.5 382.561C323.2 379.861 324.2 378.261 323.5 377.561V377.061H324.5C325.2 377.061 326.3 376.561 328 375.561C329.7 374.261 331.3 372.861 333 371.561C335 369.861 337 368.261 339 366.561C341.3 364.861 343 363.761 344 363.061C347 361.061 349.2 359.261 350.5 357.561C352.2 355.561 353.5 354.561 354.5 354.561C355.5 354.561 357.8 352.561 361.5 348.561C364.8 344.861 366.5 342.561 366.5 341.561C366.5 340.561 363.2 336.761 356.5 330.061C349.8 323.061 345.2 318.761 342.5 317.061C338.8 314.761 337 312.861 337 311.561C337 307.561 332.3 307.361 323 311.061L317.5 313.561L312.5 315.561C309.2 317.261 307.2 318.061 306.5 318.061C306.2 318.061 305.5 318.361 304.5 319.061C303.5 320.061 302.5 321.061 301.5 322.061C298.8 324.761 297.3 330.561 297 339.561L296 353.561L295 367.561C294 379.261 294.2 389.761 295.5 399.061C295.8 402.061 295.7 406.561 295 412.561L293.5 419.061C293.2 421.361 293 423.061 293 424.061C292.3 426.361 290 430.761 286 437.061C281.7 443.361 278 447.861 275 450.561C271.7 453.861 270.2 456.061 270.5 457.061C271.2 458.061 270.8 458.761 269.5 459.061C268.5 459.361 267.3 459.261 266 458.561C264.7 457.261 263.5 457.861 262.5 460.561C261.5 463.261 258 464.261 252 463.561C246 462.861 238.3 460.561 229 456.561C220.7 452.861 215.3 450.061 213 448.061C211.7 446.761 209.5 445.061 206.5 443.061C203.8 441.061 202.2 440.061 201.5 440.061C200.8 440.061 198.5 438.361 194.5 435.061C190.5 431.761 188.3 430.061 188 430.061C187.3 430.061 182.7 427.561 174 422.561C165.3 417.561 161.3 415.061 162 415.061C162.7 415.061 160.3 412.861 155 408.561C149.3 404.261 146 402.061 145 402.061C144.7 402.061 144 401.761 143 401.061L141 399.061C139 397.361 137.7 396.561 137 396.561L135.5 396.061C134.8 395.761 134.3 395.361 134 395.061C133.7 394.361 133.7 394.061 134 394.061C134.3 394.061 134.8 394.261 135.5 394.561L137.5 395.061H139.5C140.8 395.361 141.3 396.061 141 397.061C140.3 398.361 140.7 398.361 142 397.061C143.3 395.761 141.2 392.561 135.5 387.561C129.8 382.561 126.3 380.761 125 382.061C123.7 383.361 124.5 385.361 127.5 388.061C130.2 390.361 131.3 391.761 131 392.061C130.7 392.361 129.2 391.761 126.5 390.061C124.5 388.361 122.3 388.861 120 391.561C119.3 392.561 118.5 393.861 117.5 395.561L115.5 400.561C113.5 404.861 111.8 407.561 110.5 408.561C105.5 411.861 98.8 411.861 90.5 408.561C88.2 407.561 83.8 404.061 77.5 398.061C70.8 392.061 67.5 388.361 67.5 387.061C67.5 386.761 67.2 385.861 66.5 384.561C65.8 383.261 65 381.861 64 380.561C61.7 377.561 61 374.761 62 372.061C62.3 371.061 62.8 370.261 63.5 369.561C63.8 368.861 64.2 368.561 64.5 368.561C64.8 368.561 65.7 368.261 67 367.561L70.5 365.561L76 361.061L81 357.061C85.7 353.761 89.7 350.561 93 347.561C95 345.861 97.2 344.261 99.5 342.561C101.2 341.261 102.2 340.561 102.5 340.561C103.2 340.561 103.7 340.261 104 339.561L105 337.561C105.7 335.861 107 335.261 109 335.561C111 336.261 112.3 335.061 113 332.061C113 331.061 114 329.861 116 328.561C122 325.561 126.3 321.361 129 316.061C131 312.361 145.7 297.361 173 271.061C187.7 257.061 195 249.361 195 248.061C195 247.361 194.8 246.861 194.5 246.561C193.8 245.861 193.2 245.361 192.5 245.061C189.5 244.761 188.2 240.061 188.5 231.061C188.8 226.061 189.8 223.361 191.5 223.061C193.8 222.761 196.2 222.061 198.5 221.061C200.8 219.761 202.2 218.561 202.5 217.561C202.8 216.261 204 215.561 206 215.561C207.3 215.561 211 213.861 217 210.561C218.7 209.561 221.3 208.061 225 206.061C228.3 204.061 230.5 202.761 231.5 202.061C257.5 189.361 277.7 177.061 292 165.061C294.3 163.061 294.7 161.761 293 161.061C292.3 160.761 291 160.061 289 159.061C287 158.061 285.2 156.861 283.5 155.561C273.2 148.261 266.3 145.361 263 147.061L261.5 148.061L259.5 149.561C257.8 150.561 256.7 150.761 256 150.061C255.7 149.761 255.7 149.361 256 149.061L257.5 147.061L259.5 145.061C257.8 145.061 248.8 150.861 232.5 162.561C216.2 173.861 208 180.261 208 181.561L211 181.061C212.7 181.061 213.5 181.361 213.5 182.061C213.5 182.761 212.8 183.061 211.5 183.061C211.2 183.061 210.5 183.361 209.5 184.061C208.8 184.361 208.3 184.861 208 185.561C207.7 186.261 207 186.861 206 187.561L202.5 189.061C199.5 190.361 197.8 191.361 197.5 192.061C196.8 193.761 195.7 194.561 194 194.561L192 195.061L190.5 196.561C189.5 197.561 188.8 198.061 188.5 198.061C187.8 197.761 185.5 198.361 181.5 200.061L177.5 201.561C175.8 202.261 174.8 202.561 174.5 202.561C173.8 202.561 171.5 203.861 167.5 206.561C163.5 209.261 160.3 210.561 158 210.561C154.7 210.861 154.2 210.361 156.5 209.061C158.5 207.761 159.8 207.061 160.5 207.061C161.2 207.061 161.5 206.361 161.5 205.061C161.5 203.361 161 202.561 160 202.561C159.6 202.561 158.8 203.261 157.5 204.561ZM60.4 238.161C59.4 238.161 58.7 238.461 58.4 239.161C57.7 240.161 58.1 240.661 59.4 240.661C61.1 240.661 61.9 240.161 61.9 239.161C61.9 238.461 61.4 238.161 60.4 238.161ZM76.4 239.161C76.1 238.861 73.9 239.861 69.9 242.161C65.9 244.861 63.1 246.961 61.4 248.661C61.1 249.361 62.4 248.861 65.4 247.161C68.4 245.861 71.1 244.361 73.4 242.661C75.7 240.261 76.7 239.161 76.4 239.161ZM74.4 228.161C73.4 228.461 72.4 229.361 71.4 230.661C69.7 232.361 70.1 232.461 72.4 231.161C74.7 229.861 75.9 228.961 75.9 228.661C75.9 227.961 75.4 227.761 74.4 228.161ZM93.4 108.561C94.1 107.561 94.7 107.061 95.4 107.061C96.4 107.061 96.6 107.561 95.9 108.561C95.2 109.561 94.6 110.061 93.9 110.061C92.9 110.061 92.7 109.561 93.4 108.561ZM101.9 106.061C102.6 106.061 101.4 107.361 98.4 110.061L94.9 113.561L97.9 109.561C100.3 107.261 101.6 106.061 101.9 106.061ZM100.9 102.061C100.9 102.761 100.1 103.561 98.4 104.561C97.4 105.561 96.9 105.861 96.9 105.561L97.9 104.061C99.9 101.361 100.9 100.761 100.9 102.061ZM104.4 97.0611C105.1 96.3611 105.7 96.2611 106.4 96.5611C106.7 96.8611 106.7 97.2611 106.4 97.5611L105.4 99.0611L104.4 99.5611C104.1 99.8611 103.9 99.8611 103.9 99.5611C103.9 98.5611 104.1 97.7611 104.4 97.0611ZM109.4 94.5611C109.1 94.5611 110.6 92.8611 113.9 89.5611C117.2 86.5611 120.6 83.7611 123.9 81.0611C127.6 78.0611 129.7 76.5611 130.4 76.5611C130.7 76.5611 126.4 80.5611 117.4 88.5611C112.1 92.8611 109.4 94.8611 109.4 94.5611ZM128.9 340.661C128.6 339.361 127.4 340.361 125.4 343.661C123.4 346.961 122.1 350.161 121.4 353.161C120.7 356.161 121.4 357.361 123.4 356.661H124.4L125.4 356.161C126.1 356.161 126.4 356.661 126.4 357.661C126.4 357.961 126.6 358.161 126.9 358.161C127.6 358.461 128.2 358.461 128.9 358.161C131.2 357.861 131.7 358.461 130.4 360.161L129.9 361.661L129.4 363.661C129.1 365.361 128.9 366.861 128.9 368.161C128.9 371.861 131.4 375.361 136.4 378.661C138.4 379.961 140.7 381.461 143.4 383.161C146.1 384.861 148.4 385.961 150.4 386.661C155.1 389.361 156.1 389.461 153.4 387.161L151.9 385.661L149.9 384.161C148.2 382.861 146.9 381.861 145.9 381.161C143.2 378.861 148.1 381.361 160.4 388.661L167.9 393.161C170.6 394.461 172.9 395.661 174.9 396.661C179.2 399.361 181.6 400.461 181.9 400.161C182.2 399.861 179.2 397.861 172.9 394.161L169.4 392.161L166.4 390.661L163.4 388.661C161.7 387.661 162.4 387.361 165.4 387.661C168.7 388.361 171.9 389.861 174.9 392.161C184.6 399.161 194.2 403.361 203.9 404.661C213.9 405.661 219.9 403.361 221.9 397.661C222.6 394.361 224.7 391.161 228.4 388.161C235.4 381.161 238.9 371.661 238.9 359.661C239.2 352.661 239.1 348.461 238.4 347.161C237.4 345.461 235.6 345.461 232.9 347.161C231.6 347.861 229.7 348.361 227.4 348.661L223.9 349.161H219.9C212.9 350.161 207.9 351.461 204.9 353.161C203.2 354.161 198.4 355.461 190.4 357.161C182.7 359.161 177.9 360.161 175.9 360.161C173.9 360.161 169.6 360.461 162.9 361.161C153.2 362.161 144.2 358.161 135.9 349.161C131.3 344.561 128.9 341.661 128.9 340.661ZM141.9 141.561C145.6 140.861 147.4 140.061 147.4 139.061C147.4 138.061 147.2 137.261 146.9 136.561C145.9 136.561 144.6 136.861 142.9 137.561L138.9 140.061C135.6 142.761 133.1 143.861 131.4 143.561C128.7 142.861 127.7 143.361 128.4 145.061C129.4 146.361 131.7 148.261 135.4 150.561C139.7 153.261 144.2 156.861 148.9 161.561C152.6 165.261 155.2 166.861 156.9 166.561C158.6 165.861 165.4 161.361 177.4 153.061C189.1 144.761 194.9 140.361 194.9 140.061C194.9 139.361 193.9 137.761 191.9 135.061C189.6 132.361 187.2 131.361 184.9 132.061C182.2 133.061 181.9 132.561 183.9 130.561C184.9 129.261 185.1 128.361 184.4 128.061C184.1 128.061 183.1 128.761 181.4 130.061C180.4 130.761 177.2 132.761 171.9 136.061C167.6 138.361 166.4 138.561 168.4 136.561C169.1 135.861 172.9 132.761 179.9 127.061C179.6 127.061 175.7 128.861 168.4 132.561C161.4 136.561 157.4 138.861 156.4 139.561C155.1 140.861 149.4 142.361 139.4 144.061C137.1 144.761 135.9 144.761 135.9 144.061C135.9 143.461 137.9 142.561 141.9 141.561ZM137.4 225.161C138.7 224.161 140.2 223.161 141.9 222.161L144.9 221.161C145.2 221.461 143.9 222.661 140.9 224.661C139.6 225.661 138.4 226.461 137.4 227.161C136.1 227.861 135.4 227.961 135.4 227.661C135.1 227.261 135.8 226.461 137.4 225.161ZM147.4 218.661C148.4 217.961 149.6 217.361 150.9 216.661L152.9 215.661C153.2 215.661 152.6 216.361 150.9 217.661C148.9 218.961 147.6 219.661 146.9 219.661C146.3 219.661 146.4 219.261 147.4 218.661ZM151.4 132.561C151.1 132.561 150.6 132.761 149.9 133.061C149.2 133.761 148.7 134.261 148.4 134.561C148.1 135.261 148.1 135.561 148.4 135.561L149.9 135.061L150.9 134.061C151.6 133.061 151.8 132.561 151.4 132.561ZM159 211.161C161.7 211.161 161 212.161 157 214.161C155 215.161 154.5 214.961 155.5 213.661C156.5 211.961 157.6 211.161 159 211.161ZM170.5 54.5611C168.8 55.8611 169 56.0611 171 55.0611C173 54.3611 174 53.7611 174 53.0611C174 52.3611 172.8 52.8611 170.5 54.5611ZM242.5 160.561C240.2 162.561 238.7 163.561 238 163.561C237 163.561 235.8 164.361 234.5 166.061L232.5 168.061L230.5 169.561L229 170.561L226.5 172.061C224.5 173.361 222.7 174.761 221 176.061C218.7 177.761 217 178.761 216 179.061C215.3 179.061 215.3 178.761 216 178.061C216.7 177.061 217.5 176.061 218.5 175.061C219.8 174.061 220.8 173.361 221.5 173.061C223.8 171.761 228 168.761 234 164.061C240 159.361 244.2 156.561 246.5 155.561C249.5 153.861 251.3 153.061 252 153.061C252.7 153.061 252.7 153.361 252 154.061C251.3 155.061 250.3 155.861 249 156.561C247.7 157.561 246.8 158.061 246.5 158.061C245.8 158.061 244.5 158.961 242.5 160.561ZM225.5 99.0611L225 99.5611L224 100.061C223.3 101.061 223.5 101.561 224.5 101.561C225.5 101.561 226 101.061 226 100.061C226 99.3611 225.8 99.0611 225.5 99.0611ZM271.5 85.5611L269 86.0611L266.5 86.5611C264.5 86.5611 263.2 86.3611 262.5 86.0611C261.5 85.3611 259.8 85.5611 257.5 86.5611C255.2 87.5611 254 88.7611 254 90.0611C254 90.3611 253.7 90.5611 253 90.5611L252 91.0611C250.7 91.0611 250.2 91.3611 250.5 92.0611C250.8 93.0611 249.7 93.5611 247 93.5611L244 94.0611C243.3 94.0611 243 94.3611 243 95.0611C243 96.0611 241.7 97.5611 239 99.5611C236.7 101.561 234.3 102.861 232 103.561C228 104.861 229 106.861 235 109.561C238.3 110.861 243 109.761 249 106.061C252.3 104.061 255.5 102.061 258.5 100.061C259.5 100.061 262.5 98.2611 267.5 94.5611C272.2 91.2611 274.8 89.0611 275.5 88.0611C276.8 85.7611 275.5 84.8611 271.5 85.5611ZM240 96.0611C238.3 96.0611 237.2 96.5611 236.5 97.5611C236.2 98.2611 236.3 98.5611 237 98.5611C237.7 98.5611 238.7 98.2611 240 97.5611C241.3 96.5611 241.3 96.0611 240 96.0611ZM241.5 94.0611L242 92.5611V91.0611C242 90.7611 241.8 90.5611 241.5 90.5611C240.5 90.5611 239.8 91.0611 239.5 92.0611C239.2 92.7611 239.3 93.3611 240 94.0611C240.3 94.3611 240.8 94.3611 241.5 94.0611ZM271.5 75.0611C271.5 74.7611 268.5 75.7611 262.5 78.0611C257.5 80.3611 251.2 84.5611 243.5 90.5611L248 87.5611C251 85.5611 256 83.0611 263 80.0611C268.7 77.3611 271.5 75.7611 271.5 75.0611ZM278 132.561C278.3 131.861 279 131.261 280 130.561C281 129.861 281.7 129.561 282 129.561C282.3 129.861 282 130.761 281 132.061C279.7 133.361 278.5 134.061 277.5 134.061C277.2 134.061 277.3 133.561 278 132.561ZM330.5 368.661C331.2 367.961 332.2 367.161 333.5 366.161C334.5 364.861 335.5 363.861 336.5 363.161C337.5 362.461 338.2 362.361 338.5 362.661C339.2 362.961 338 364.361 335 366.661C332.3 368.961 330.5 370.161 329.5 370.161C329.2 370.161 329.5 369.661 330.5 368.661ZM333.5 216.661C332.8 216.961 332.2 217.861 331.5 219.161C330.2 220.861 330.3 221.161 332 220.161C332.7 219.161 333.5 218.361 334.5 217.661C334.5 216.961 334.2 216.661 333.5 216.661ZM338.5 349.661C339.2 349.361 339.7 349.161 340 349.161C341.3 349.161 340.8 350.361 338.5 352.661C336.5 354.361 336 354.161 337 352.161C337.4 351.161 337.9 350.361 338.5 349.661ZM339 358.161C340.3 356.861 341.8 355.461 343.5 354.161L346.5 352.161C346.8 352.161 345.8 353.461 343.5 356.161C340.2 358.861 338.3 360.161 338 360.161C337.4 360.161 337.7 359.561 339 358.161ZM387.1 149.561C386.1 149.561 384.8 150.061 383.1 151.061C381.8 152.361 380.6 153.561 379.6 154.561C378.9 155.561 378.9 156.261 379.6 156.561L381.1 157.561C381.8 157.861 382.3 158.061 382.6 158.061C383.3 158.061 384.6 157.061 386.6 155.061C388.3 153.061 389.1 151.561 389.1 150.561C389.1 149.561 388.4 149.261 387.1 149.561Z" fill="#222222" fill-opacity="0.05"/>
</svg>
