<svg width="461" height="462" viewBox="0 0 461 462" fill="none" xmlns="http://www.w3.org/2000/svg">
<path d="M152.3 108C153.3 108.7 154.8 109.8 156.7 111.5C161.3 115.4 163.9 117.4 164.6 117.4C165.6 117.4 166.7 118.7 168.1 121.3C168.8 122.3 169.4 123.3 170.1 124.3C171.1 125.3 172.1 126 173.1 126.3C174.4 126.6 175.1 128.1 175.1 130.7V133.7C175.1 135 175.4 136 176.1 136.7C177.7 138.7 177.7 141.3 176.1 144.6L175.6 146.1L175.1 147.6C175.1 148.6 174.8 149.1 174.1 149.1C173.8 149.1 173.4 149.3 173.1 149.6L172.6 151.1C172.6 151.4 172.1 152.4 171.1 154.1C170.1 156.4 169 158.5 167.6 160.5C162 169.4 157.2 185 153.3 207.4C152.3 212 151.6 218.3 151.3 226.2C151.3 234.1 151.6 238.4 152.3 239C153 239.7 161.7 231.3 178.5 213.8L204.7 187.6V176.2C205.4 131.5 210 92.6 218.5 59.7L220 53.3C220.3 52 220.8 50.3 221.5 48.4L222.5 43C223.8 43.3 225.3 44 226.9 45C231.5 47.6 234.5 52.1 235.8 58.3C238.1 69.8 238.4 86.8 236.8 109.1L235.8 122.9L234.8 136.2C233.8 147.1 233.1 155 232.8 159.9C232.5 164.2 232.1 168.8 231.8 173.7L230.3 186C229.6 195.2 229.8 204.3 230.8 213.1C232.1 224.9 232.8 231.9 232.8 233.8L232.3 238.7L236.2 235.2C237.5 233.9 242.1 228.5 250 218.9L254.4 214L258.3 209.1C260.9 205.8 262.6 203.8 263.2 203.2C267.1 198.3 274.7 185.9 285.9 166.2C296.8 146.1 304.8 130.3 310.1 118.8C313.4 112.2 315.4 108.4 316 107.4C318.6 103.5 319.1 101.5 317.5 101.5C315.5 101.2 311.9 103 306.6 106.9C284.2 123 267.8 129.3 257.2 125.7C256.2 125.4 255.2 125 254.2 124.7H252.2C250.5 124.7 249.4 124.2 248.7 123.2C247 121.2 247.4 117.1 249.7 110.9L250.7 107L252.2 103.5C253.5 100.5 254.3 98.6 254.7 97.6C256.7 93 258.2 90.7 259.1 90.7C260.4 90.7 262.6 88.9 265.5 85.3C271.1 78.4 281.1 69.5 295.6 58.6C310 47.7 321.4 40.2 330 35.9C334.6 34.3 337.6 32.4 338.9 30.5C341.5 27.5 346.5 27.9 353.7 31.5C355 32.2 356.3 32.8 357.6 33.5C358.9 33.8 359.7 34 360.1 34C361.7 34 365.2 35.3 370.5 37.9C372.1 38.6 374.1 39.6 376.4 40.9L378.9 41.9L380.4 42.9C384.3 44.6 390.1 48.7 397.7 55.2C405.6 61.5 410.7 66.6 413 70.5C418.3 78.4 421.6 87.1 422.9 96.7C423.6 102 419.6 112.8 411.1 129.3C397.6 156.6 387.9 172.9 382 178.2C378.7 181.2 377.2 183 377.6 183.6C377.6 183.9 379.9 185.4 384.5 188C389.1 190.6 391.6 193.8 391.9 197.4C392.2 199.1 392.1 200.7 391.4 202.3L389.9 206.2C388.6 209.2 388.4 211.8 389.4 214.1C391 219.4 387.4 225.6 378.5 232.9C376.2 234.6 373.4 236.8 370.1 239.8C367.5 242.4 365 244.7 362.7 246.7C358.8 251 355 254.1 351.3 256.1C348 258.1 344.9 261 341.9 265L338 270.9L333.6 276.8C322.4 291.6 319.1 299.7 323.7 301C328.6 302.7 332.9 309.1 336.5 320.3C338.5 327.2 339.1 336.4 338.5 347.9L337 362.7L336 370.1L335.5 377L334.5 386.4L341.4 389.4C346.3 392 352.4 393.8 359.7 394.8C366.9 396.1 372 396.1 375 394.8C377.6 393.8 380.8 391.5 384.4 387.9C388.3 384 391 380.7 392.3 378C393.6 375 393.3 368.5 391.3 358.3L389.3 350.4L387.8 342.5L384.8 327.7C382.2 316.5 379.4 306.3 376.4 297.1C368.8 274.1 365.9 261.9 367.5 260.6C367.8 259.9 370.1 264.1 374.4 272.9C378.7 282.1 382.6 291 386.2 299.6L391.1 310C384.8 290.9 382 280.7 382.7 279.4C383 277.4 382.7 277.1 381.7 278.4C380.7 280.1 380.4 279.2 380.7 275.9C381.4 272.6 381.4 271.5 380.7 272.4C380 273.7 379.7 272.2 379.7 268C379.7 264.4 379.4 261.3 378.7 258.6C376.4 251.4 380.2 258.1 390.1 278.8L396 291.1C397.6 294.4 399.5 298.2 401.4 302.5L403.4 306.9L404.4 308.9L405.4 310.9C406.4 312.9 406.9 314 406.9 314.4C409.5 318.7 411.2 322.6 411.8 326.2C412.8 331.5 415.7 340 420.7 351.9C425.6 363.4 429.6 371.3 432.5 375.6C433.8 377.6 434.3 377.7 434 376.1C432.7 370.8 429.9 362.4 425.6 350.9L423.1 344.5L420.1 337.6C418.1 332.7 416.6 328.9 415.7 326.2C415.4 324.9 414.7 323.1 413.7 320.8L411.2 314.9C409.2 310.6 408.2 308.3 408.2 308C408.9 307.3 410.7 309.5 413.6 314.4C416.6 319 418.7 323.3 420 327.2C421 330.2 422.6 333.8 424.9 338.1C426.9 342.4 428.4 346 429.3 349C431.3 354.3 433.7 360 436.7 366.3L438.7 370.2L440.7 374.6C442.7 378.6 444.3 382.2 445.6 385.5C454.5 406.2 459.3 418.2 459.9 421.5C460.6 425.4 459.2 429.1 456 432.4C454.7 433.7 453.5 435.2 452.5 436.8C451.5 438.1 451 439.1 451 439.8C451 441.1 449.8 442.4 447.5 443.7C445.2 445.3 443.1 446.2 441.1 446.2C439.1 446.2 435.2 447.7 429.3 450.6L419.9 455H398.2C383.1 454.7 372 453.3 365.1 451.1C361.8 449.8 358.5 448.3 355.2 446.7C351.3 444.7 348.3 443.1 346.3 441.8C341 438.2 338.1 436.4 337.4 436.4C337.1 436.4 334.3 434.8 329 431.5L321.1 426.6L314.2 422.7C310.3 419.7 305.6 415.3 300.4 409.4C295.5 403.8 291.8 399 289.5 395.1C287.5 391.2 286.7 380.6 287 363.5V338.8L282.6 344.2C280.9 346.2 279.6 347.7 278.7 348.6L277.7 350.1L277.2 351.1C275.9 353.1 273.9 355.5 271.3 358.5C267.4 362.4 265 366.1 264.4 369.4C263.7 371.7 262.3 373.8 260 375.8C257.4 377.8 255.2 378.6 253.6 378.3C251.9 378.3 250.1 379.8 248.2 382.7C246.5 385 244.6 387 242.3 388.6C240 390.2 238.5 390.7 237.9 390.1C237.6 389.8 241 385.7 248.3 377.8C255.5 369.9 258.7 365.5 257.7 364.5C257 363.8 256.4 364.2 255.7 365.5C255.4 367.2 251.9 371.4 245.3 378.3C239 385.9 233.9 391.3 230 394.6C225.7 398.9 223.6 401.8 223.6 403.5C223.6 404.2 223.1 405 222.1 406C221.1 407 220 408 218.6 409C215.3 410.6 214 410.8 214.7 409.5C215 407.8 214.5 407.5 213.2 408.5C211.5 409.5 210.2 411 209.3 412.9C208.6 414.2 204.5 418 197 424.3L200.9 418.9L204.8 414.5L208.7 409.6C214.9 401.4 214.8 400.4 208.2 406.6C207.2 407.9 205.9 409.1 204.3 410.1C203 411.1 202.2 411.4 201.8 411.1C200.8 410.4 197.7 412.9 192.4 418.5C187.1 424.1 184.2 428 183.5 430.3C182.2 432.6 181.2 433.6 180.5 433.3C179.5 432.6 179.2 433 179.5 434.3C180.2 435.6 179.8 436.9 178.5 438.3C177.5 439 176.8 439.3 176.5 439.3C176.5 439 175.8 439.3 174.5 440.3C173.2 441.3 171.9 442.4 170.6 443.8C166.7 447.4 163.2 449.2 160.2 449.2C157.6 449.2 155.6 449.9 154.3 451.2C153.3 452.2 152.8 452.2 152.8 451.2C152.8 450.5 153.5 449.1 154.8 446.8C155.1 445.8 156.4 444.3 158.7 442.4L162.2 439.4L165.7 435.9C171.6 430.3 174.1 427 173.1 426C172.4 425.7 171.6 425.8 170.6 426.5C169.6 427.2 169.4 427.8 170.1 428.5C170.4 428.8 169.3 430.1 166.6 432.4L163.6 434.9L160.6 437.9C157 441.5 152.4 444.8 146.8 447.8C140.5 450.8 136.3 452.1 134 451.7C131.7 451 130.2 452 129.6 454.7C128.9 457.7 127.6 459.3 125.7 459.6L122.7 460.1L119.2 461.1C115.3 462.7 114.4 461.6 116.7 457.6C117 456.9 117.2 455.8 117.2 454.1L116.2 449.7C115.5 446.1 115.7 443.9 116.7 443.3C118 442.3 119.2 440.8 120.2 438.9C121.5 436.9 122.2 435.3 122.2 434C122.2 432.7 120.4 434.8 116.8 440.4C115.5 442.4 113.8 444.5 111.9 446.8C110.6 449.1 109.4 450.6 108.4 451.2C106.1 452.8 104.1 452.7 102.5 450.7L101 448.7L98.5 445.7C96.8 443.4 95.4 441.3 94.1 439.3C90.8 433.4 90.3 428.4 92.6 424.5C97.5 415.3 100 399.7 100 377.6C100 366.1 99.3 360.5 98 360.8C96.7 361.5 96 361.3 96 360.3C96 358.3 93.4 359.2 88.1 362.8C82.5 366.4 78.6 370.2 76.3 374.2C71.7 380.5 66.9 385.7 62 390C56.7 394.3 53.1 395.8 51.1 394.4C50.8 394.1 50.3 394.1 49.6 394.4L48.1 395.4C46.8 396.1 45.8 396.1 45.1 395.4C44.4 394.1 42 393.7 37.7 394.4C31.8 394.7 27.2 392.6 23.9 388C20.6 383.7 19.3 378.5 20 372.2C20.3 367.3 23.1 360.4 28.4 351.5L35.3 341.1C37.6 337.2 39.4 333.9 40.7 331.2L41.2 330.2L41.7 329.2L43.7 325.7C45 322.7 46.5 319.9 48.1 317.3C52.7 308.7 56.7 301 59.9 294.1C70.4 273.7 75.4 263.2 74.7 262.5L73.7 263C73 263.3 72.4 263.7 71.7 264C69.7 265 67.9 266.3 66.3 267.9C61 271.5 54.8 273.7 47.5 274.3C39.6 274.6 32.5 273.2 26.3 269.9C10.8 262.3 2.4 253.8 1.1 244.2C0.100004 238.9 0.800004 234.3 3.1 230.4L6.1 226C7.7 223.7 8.9 221.7 9.6 220.1C10.6 218.1 11.6 216.5 12.6 215.2C13.3 215.5 16.2 213.4 21.5 208.8C26.4 204.5 29.7 201.1 31.4 198.4C32.4 196.8 38.5 190.2 49.7 178.7L56.1 172.3C58.1 170 59.9 168 61.5 166.4C65.1 162.5 67.3 160 67.9 159C70.2 155.7 78.3 147 92.1 132.8C106.2 118.3 113.8 111.1 114.8 111.1C116.1 111.1 116.8 110.4 116.8 109.1C116.8 107.5 117.6 106.6 119.3 106.6C120 106.6 120.8 106.4 121.8 106.1C123.4 105.4 124.8 104.8 125.7 104.1C131.3 100.5 136.9 100.5 142.5 104.1C143.5 104.8 144.6 105.4 146 106.1C147 106.4 147.8 106.6 148.5 106.6C149.5 106 150.6 106.7 152.3 108ZM143.9 7.30001C158.7 15.5 167.6 24.6 170.6 34.4C171.6 37.4 172.6 40 173.6 42.3C174.9 45.6 176.1 48.2 177.1 50.2C179.4 55.5 180.4 58.8 180.1 60.1C179.1 62.7 176.5 66.2 172.2 70.5C168.3 74.8 164.6 77.7 161.3 79.4C149.1 85.7 135 84.5 118.9 75.9C118.2 75.2 116.8 74.6 114.5 73.9C112.2 72.9 109.7 72.1 107.1 71.4C97.2 68.8 90.5 69.4 86.9 73.4C84.9 75.4 83.9 75.7 83.9 74.4C83.9 74.1 84.1 73.7 84.4 73.4C84.7 72.7 85.1 72.4 85.4 72.4C88.7 70.1 86.1 66.3 77.5 61C71.6 57.7 67.3 53.8 64.7 49.2C63.7 47.6 62.7 46.1 61.7 44.8C61 43.5 60.7 42.7 60.7 42.3C60.7 41.6 62.2 39.5 65.1 35.9C69.7 31 76.8 27.2 86.3 24.5C90.9 23.2 96.2 20.1 102.1 15.1C108.7 10.2 113.1 7.70001 115.4 7.70001C117.7 7.70001 120.7 6.90001 124.3 5.20001C127.9 3.60001 129.7 2.40001 129.7 1.70001C129.6 -0.499986 134.3 1.30001 143.9 7.30001ZM124.6 417.5C124.3 416.8 123.6 417.5 122.6 419.5C121.6 421.1 121.1 423.4 121.1 426.4C121.1 429.4 121.6 430.8 122.6 430.8C123.3 430.8 123.6 429.5 123.6 426.9V423.9C123.6 422.6 123.8 421.8 124.1 421.4C124.8 419.1 124.9 417.8 124.6 417.5ZM214 242.7C210.1 230.2 207.3 219.7 205.6 211.1C205.3 209.1 203.8 210.1 201.2 214.1C199.2 217.4 198.4 219 198.7 219C200.3 218.3 199.7 220.8 196.7 226.4L194.2 231.3L191.7 236.2C189.7 239.8 187.9 242.6 186.3 244.6C185 245.9 185.1 245.9 186.8 244.6C188.4 243.3 189.8 243.3 190.7 244.6C191.4 245.9 188.6 250.2 182.3 257.4L178.8 261.8L175.3 265.3C173.3 268.3 172.3 270.2 172.3 271.2C172.3 272.5 170.8 275.5 167.9 280.1C165.3 284.4 162.8 287.8 160.5 290.5C158.5 292.8 156.4 296.3 154.1 300.9C151.8 305.5 150.8 308.1 151.1 308.8C151.8 309.5 151.4 310.6 150.1 312.3C149.1 313.3 148.6 317.9 148.6 326.1C148.6 333.7 148.3 337.5 147.6 337.5C145.3 337.5 144.1 344.6 144.1 358.7C144.1 365 143.3 372.2 141.6 380.4C139.9 389.3 138.3 394.5 136.7 396.2C136 396.9 135.7 398 135.7 399.7V405.1C135.4 409.4 134.4 411.2 132.7 410.5C131 409.8 130.1 411.8 129.7 416.4V422.3C129.7 424.9 129.5 426.7 129.2 427.7C127.9 432.3 127.5 436.3 128.2 439.5L128.7 444.9L132.2 440C134.2 437 137.8 432.6 143.1 426.7C157.9 410.9 177.2 385.9 200.9 351.7C201.6 350.7 203.9 347.3 207.8 341.3L210.3 337.4L213.3 333L219.2 324.1C229.7 308.3 236.1 299.3 238.5 297C240.1 295 243.9 289.6 249.9 280.7C251.9 277.7 254 274.5 256.3 270.8C257.3 269.5 258.1 268.2 258.8 266.9L259.8 264.9L260.8 263.9L262.8 260.9L264.8 257.9C265.8 255.9 266.4 254.4 266.8 253.5C267.8 251.5 265.5 251.9 259.9 254.5C254 257.5 248.4 258.8 243.1 258.4L234.7 257.4L235.7 263.3C236.4 267.6 237.5 270.2 239.2 271.2C241.2 273.2 241.5 274.3 240.2 274.7C238.2 275.4 235.6 274.9 232.3 273.2C229 271.9 226.5 270.1 224.9 267.8C221.9 264.3 218.2 255.9 214 242.7ZM184.8 413C185.5 411.7 185.6 411 185.3 411C184.6 411 183.2 412.6 180.9 415.9L178.4 419.9C177.7 420.9 177.2 421.5 176.9 421.9C175.6 422.9 175.4 423.5 176.4 423.9C177.4 423.9 179.4 421.8 182.3 417.5C183.4 415.8 184.2 414.3 184.8 413ZM205.6 201.3C205.6 200.6 205.3 200.2 204.6 199.8C203.9 199.5 203.3 199.6 202.6 200.3C201.9 201 201.6 202.1 201.6 203.8C201.6 205.8 202.4 205.9 204.1 204.3C205.1 203.2 205.6 202.2 205.6 201.3ZM234.7 386.8C234.7 386.5 234.5 386.3 234.2 386.3C233.2 386.3 230.7 388.1 226.8 391.7C222.9 395.6 220.9 397.9 220.9 398.6C220.9 400.9 222.9 399.7 226.8 395.1L229.3 392.6L231.3 390.1L232.8 388.6L233.3 387.6C233.9 387.5 234.4 387.2 234.7 386.8ZM280.6 334.5C279.9 333.8 278.5 334.8 276.2 337.5C272.9 340.1 271.6 343.1 272.3 346.4C272.3 347.4 271.8 348.4 270.8 349.4C269.8 350.1 270 350.2 271.3 349.9C272.6 349.6 273.9 348.3 275.2 346L277.2 342.5L279.2 339.5C281.1 336.8 281.6 335.2 280.6 334.5ZM287 60.1C288 59.1 289.1 58 290.5 56.6C291.8 55.3 293 54.3 294 53.6C295 52.9 295.6 52.8 296 53.1C296.7 53.4 295.3 54.9 292.1 57.5C289.1 60.1 287.2 61.4 286.2 61.4C285.7 61.6 286 61.1 287 60.1ZM321.6 36.9C322.9 37.9 321.8 39 318.1 40.4C315.8 41.1 315.6 40.4 317.6 38.4C319.3 36.4 320.6 35.9 321.6 36.9Z" fill="#222222" fill-opacity="0.05"/>
</svg>
