<svg width="463" height="464" viewBox="0 0 463 464" fill="none" xmlns="http://www.w3.org/2000/svg">
<path d="M157.6 204.7C156.3 206.4 155.3 207.2 154.6 207.2C153.9 207.2 153.3 207.4 152.6 207.7C151.6 208.4 150.8 209.2 150.1 210.2C147.8 212.2 140.8 217 129.1 224.7C117.1 232.7 110.3 236.9 108.6 237.2C107.6 237.5 106.6 238 105.6 238.7C104.3 239.4 103.3 240 102.6 240.7C101.9 241.4 100.6 242.4 98.6001 243.7L96.1001 245.2L93.1001 247.2C87.8001 250.9 84.6001 253.2 83.6001 254.2L78.1001 257.2L72.6001 260.2L66.6001 263.2C56.9001 268.5 55.8001 270.4 63.1001 268.7L68.1001 267.7C66.1001 269.4 62.6001 271.5 57.6001 274.2L52.1001 277.2L47.1001 280.7C44.1001 282.7 40.9001 284.4 37.6001 285.7C34.9001 286.7 32.1001 287.4 29.1001 287.7C23.8001 288.7 21.1001 289.5 21.1001 290.2C21.1001 290.9 20.6001 291.2 19.6001 291.2C19.3001 291.2 18.9001 290.9 18.6001 290.2V288.7L19.6001 287.2C19.9001 286.9 20.4001 286.7 21.1001 286.7C21.4001 287 21.8001 287 22.1001 286.7C22.4001 286 22.6001 285.5 22.6001 285.2C22.6001 282.9 20.8001 282.7 17.1001 284.7L15.1001 286.2L13.1001 287.2C11.4001 287.9 10.4001 288 10.1001 287.7L12.1001 283.7C13.4001 281.4 13.8001 280.2 13.1001 280.2C11.8001 280.2 11.1001 280.9 11.1001 282.2C11.1001 283.9 10.4001 283.7 9.1001 281.7L7.6001 279.7L7.1001 278.2C7.1001 277.2 5.9001 277 3.6001 277.7C1.3001 278 0.100098 276.9 0.100098 274.2C0.100098 272.9 1.3001 271.5 3.6001 270.2L7.1001 268.7L9.6001 266.7C11.9001 264.4 13.8001 263.2 15.1001 263.2C16.4001 263.2 17.1001 262.9 17.1001 262.2C17.4001 261.2 21.6001 258.9 29.6001 255.2C32.6001 253.9 35.4001 252.5 38.1001 251.2C40.8001 249.9 42.4001 249.2 43.1001 249.2C44.4001 248.5 46.3001 247.2 48.6001 245.2L52.1001 242.7L55.1001 240.2C60.8001 235.9 64.1001 234 65.1001 234.7C65.8001 235 65.9001 235 65.6001 234.7C64.9001 233.7 66.6001 231.5 70.6001 228.2C74.9001 225.2 77.6001 224 78.6001 224.7C79.3001 225 81.6001 224 85.6001 221.7C89.3001 219 91.1001 217.2 91.1001 216.2C91.8001 214.9 89.1001 216.7 83.1001 221.7C81.1001 223.7 79.8001 224.4 79.1001 223.7C78.4001 223 80.9001 220.9 86.6001 217.2C92.3001 213.5 95.9001 211.5 97.6001 211.2C98.3001 211.2 98.8001 210.9 99.1001 210.2L100.1 209.2C100.4 208.2 100.9 207.9 101.6 208.2C102.3 208.2 103.6 207.2 105.6 205.2L107.6 202.7C108.3 202 108.9 201.7 109.6 201.7C110.3 201.7 110.9 201.5 111.6 201.2L112.6 199.7C113.6 198.4 114.6 197.9 115.6 198.2C116.6 198.9 118.1 197.9 120.1 195.2C121.4 192.9 120.8 190.2 118.1 187.2C113.1 181.5 110.1 175.5 109.1 169.2C107.8 162.2 106.6 159.2 105.6 160.2C103.6 160.9 102.6 157.7 102.6 150.7C102.6 148 104.1 146.9 107.1 147.2C109.8 147.5 110.9 147 110.6 145.7C109.9 144.4 110.6 144.2 112.6 145.2C114.3 146.2 116.6 146.4 119.6 145.7C122.6 145.4 123.6 144.7 122.6 143.7C121.3 142.4 119.4 141.4 117.1 140.7L114.1 140.2L110.6 139.2C104.6 138.2 100.8 136.5 99.1001 134.2C97.4001 131.9 95.1001 130.4 92.1001 129.7C89.1001 129 86.9001 129.5 85.6001 131.2C84.6001 132.2 83.6001 132.2 82.6001 131.2C80.6001 129.5 94.1001 116.2 123.1 91.2C134.1 81.9 138.1 77.9 135.1 79.2C132.8 80.2 131.4 80.5 131.1 80.2C141.8 73.5 150.3 68 156.6 63.7C169.3 55.4 164.6 57.7 142.6 70.7C135.9 74.4 133.1 75.5 134.1 74.2C135.4 72.5 139.8 69.4 147.1 64.7C160.4 56 179.1 46 203.1 34.7C240.1 17.4 268 6.70003 286.6 2.70003C295.9 0.700028 305.1 -0.0999716 314.1 0.200028C323.1 0.200028 328.4 1.40003 330.1 3.70003C331.1 5.40003 332.6 6.20003 334.6 6.20003C336.3 6.20003 338.8 8.50003 342.1 13.2C347.4 20.9 348.6 27.5 345.6 33.2C344.3 35.9 340.4 39.7 334.1 44.7C328.1 49.4 323.6 52.2 320.6 53.2C319.6 53.5 318.6 54 317.6 54.7L316.1 57.2C314.4 58.9 312.3 59.7 309.6 59.7C306.9 59.7 301.6 61 293.6 63.7C290.6 65 287.8 66 285.1 66.7C282.4 67.4 280.9 67.5 280.6 67.2C279.9 66.9 279.8 67 280.1 67.7C280.8 69 282.8 69.5 286.1 69.2C289.4 68.9 292.4 68 295.1 66.7C297.8 65 299.8 64.2 301.1 64.2C301.8 64.5 301.4 65.2 300.1 66.2C299.1 66.5 298.3 66.9 297.6 67.2C296.3 67.9 295.4 68.4 295.1 68.7C294.8 69 286.9 72.9 271.6 80.2C272.3 80.9 275.9 80.4 282.6 78.7C288.6 77 294.1 75.2 299.1 73.2C310.4 68.2 317.9 66.4 321.6 67.7C322.9 68.4 324.4 69.2 326.1 70.2L328.6 71.7L330.1 73.2C332.4 75.5 334.1 76.7 335.1 76.7C336.4 76.7 338.3 79 340.6 83.7C342.9 88.4 344.4 92.4 345.1 95.7C345.4 99.4 344.3 102.2 341.6 104.2C339.9 105.2 338.6 106 337.6 106.7C335.9 107.4 334.6 107.9 333.6 108.2C329.9 108.9 322.4 111.9 311.1 117.2C299.4 122.5 293.4 125.9 293.1 127.2C292.8 127.5 292.3 127.9 291.6 128.2L289.6 128.7C288.9 128.7 288.3 128.9 287.6 129.2L286.6 130.2C285.6 130.9 284.6 130.9 283.6 130.2C282.6 129.2 281.3 129 279.6 129.7C277.9 130 276.8 131 276.1 132.7C275.4 134.7 274.6 135.4 273.6 134.7C272.3 134 272.1 134.2 273.1 135.2C273.8 135.5 275.6 136 278.6 136.7C281.9 137.4 285.3 137.9 288.6 138.2C302.9 139.9 314.6 141.5 323.6 143.2L329.6 144.2L360.1 111.2L356.6 107.7C355.3 106 353.6 103 351.6 98.7C349.6 94 348.6 91 348.6 89.7C348.6 89.4 350.1 89.2 353.1 89.2C355.1 89.2 356.3 89 356.6 88.7L357.1 87.7V87.2C357.1 85.9 358.6 85.4 361.6 85.7C364.6 86.4 367.9 86 371.6 84.7C373.6 84 377.9 84 384.6 84.7C390.9 85.7 395.1 86.7 397.1 87.7C397.8 88 400.8 89.2 406.1 91.2C412.1 93.2 418.9 97.9 426.6 105.2L439.1 116.7V137.2L434.1 139.7C424.1 145 415.6 147.4 408.6 146.7C401.9 146.7 395.6 149.2 389.6 154.2L384.6 158.2L386.6 159.7L388.6 161.7C390.6 163 392.3 163.7 393.6 163.7C394.3 163.7 398.3 165.2 405.6 168.2C412.6 171.5 416.6 173.2 417.6 173.2C418.9 173.2 422.3 175 427.6 178.7C433.3 182.7 437.6 186.2 440.6 189.2C448.6 196.9 454.8 206.4 459.1 217.7C463.4 229.4 463.9 238 460.6 243.7C459.9 245.4 458.1 247 455.1 248.7C452.4 250 449.9 250.7 447.6 250.7C439.6 250.7 429.4 244.5 417.1 232.2C414.4 229.5 411.8 228.2 409.1 228.2C405.8 228.2 404.1 227.7 404.1 226.7C402.4 224.7 397.4 224.9 389.1 227.2C383.8 228.5 371.6 229 352.6 228.7C329.9 228.4 318.6 228 318.6 227.7C318.6 227.4 319.9 226.4 322.6 224.7L326.6 222.2C328.3 221.2 329.6 220 330.6 218.7C331.6 217.7 332.4 217 333.1 216.7C333.8 216 334.3 215.9 334.6 216.2C335.6 216.9 336.9 216.4 338.6 214.7C340.6 213 341.3 211.7 340.6 210.7L340.1 210.2C340.4 209.9 340.8 209.9 341.1 210.2C341.8 210.5 345.1 207.7 351.1 201.7C357.1 195.7 360.3 192 360.6 190.7C360.9 190 357.9 188 351.6 184.7C344.9 181.7 338.6 180.7 332.6 181.7C316.9 184.7 309.1 186.7 309.1 187.7C309.1 188.4 309.4 188.7 310.1 188.7C310.4 188.7 310.9 188.9 311.6 189.2C312.6 189.9 313.4 190.5 314.1 191.2C315.1 191.9 316.1 192.7 317.1 193.7C318.8 195 320.1 196 321.1 196.7C323.4 199 324.1 200.2 323.1 200.2C321.8 200.2 321.8 200.9 323.1 202.2C324.1 203.5 323.3 205 320.6 206.7C318.3 208 316.9 209 316.6 209.7C315.9 210.7 316.4 210.9 318.1 210.2C318.8 210.2 319.6 210.4 320.6 210.7C321.6 211.4 322.4 212 323.1 212.7C325.1 214.7 325.1 215.5 323.1 215.2C321.1 214.9 318.1 216.2 314.1 219.2C307.1 224.5 298.9 229.7 289.6 234.7C279.9 240 273.3 242.9 269.6 243.2C268.3 243.2 266.8 243.7 265.1 244.7L259.6 247.7C254.9 250.4 251.6 251.7 249.6 251.7C243.9 252 240.4 252.7 239.1 253.7C238.4 254.4 237.1 254.4 235.1 253.7L232.6 252.7C231.9 252.7 231.1 252.9 230.1 253.2C228.8 253.5 226.8 253.5 224.1 253.2C221.8 252.9 219.8 253 218.1 253.7H216.1L214.1 253.2C212.8 252.9 211.9 252.9 211.6 253.2C211.3 253.5 210.8 253.9 210.1 254.2C208.8 254.5 207.6 254.7 206.6 254.7C200.3 254.7 192.8 260.9 184.1 273.2C182.8 275.2 181.4 277.2 180.1 279.2C179.1 281.2 178.6 282.4 178.6 282.7C178.6 283 177.8 284 176.1 285.7C174.1 288 171.9 290 169.6 291.7C159.3 301.7 153.6 307.7 152.6 309.7C150.9 312.4 151.3 313.7 153.6 313.7C160.9 313.7 178.3 306.4 205.6 291.7C209.9 289.4 212.8 287.9 214.1 287.2C215.4 286.9 214.9 287.5 212.6 289.2C211.9 289.5 211.3 290.2 210.6 291.2C210.3 291.9 210.1 292.5 210.1 293.2C210.1 294.2 209.1 294.7 207.1 294.7C204.1 294.7 203.1 295.9 204.1 298.2C204.1 298.5 209.4 295.7 220.1 289.7L226.1 286.2C227.8 285.2 229.6 284 231.6 282.7L237.1 279.7C241.1 277.7 245.1 274.5 249.1 270.2L254.6 264.7L259.6 259.2C263.6 255.2 265.6 252.2 265.6 250.2C265.6 248.2 266.1 247.7 267.1 248.7C267.8 249.4 268.3 250.9 268.6 253.2L269.1 256.7L273.1 252.7C274.4 251.7 275.6 250.9 276.6 250.2C277.6 249.5 278.3 249.2 278.6 249.2C279.9 249.2 279.6 249.9 277.6 251.2C275.9 252.5 275.9 253.5 277.6 254.2C278.9 254.5 280.1 254.2 281.1 253.2C282.1 251.9 282.3 250.4 281.6 248.7C280.9 247.4 281.4 246.5 283.1 246.2H287.1C291.8 245.2 301.4 247.5 316.1 253.2C336.1 260.5 348.8 268 354.1 275.7C357.4 282.4 356.6 286.7 351.6 288.7C350.3 289.4 349.1 289.9 348.1 290.2L345.6 290.7C343.9 291.4 342.4 292.2 341.1 293.2C339.4 294.5 341.1 295.2 346.1 295.2L349.6 295.7L352.6 296.2C354.9 296.5 356.6 296.9 357.6 297.2C358.9 297.5 359.8 297.7 360.1 297.7C360.8 297.7 360.8 297.4 360.1 296.7C359.8 296.4 359.9 296.2 360.6 296.2C360.9 295.9 361.6 295.9 362.6 296.2L364.6 296.7L367.6 297.2C370.6 297.9 373.1 298.5 375.1 299.2C383.4 300.9 392.8 304.7 403.1 310.7C413.1 316.7 419.3 321.9 421.6 326.2C422.6 328.2 425.1 332.9 429.1 340.2C433.4 347.5 436.8 356.4 439.1 366.7C441.4 377 441.8 384.5 440.1 389.2C437.1 395.5 431.3 399.5 422.6 401.2C419.6 401.9 416.3 401.9 412.6 401.2C408.9 400.5 406.8 399.5 406.1 398.2C405.8 397.2 404.1 397 401.1 397.7C398.8 398 397.8 397.9 398.1 397.2C398.4 396.2 395.6 395.4 389.6 394.7C383.3 394 379.4 394 378.1 394.7C377.4 395 376.6 395 375.6 394.7C374.6 394.4 373.8 393.9 373.1 393.2C368.8 390.9 365.1 391 362.1 393.7C360.8 394.4 360.3 394.4 360.6 393.7C361.9 392.4 362.6 391.5 362.6 391.2C362.6 390.5 359.8 390.4 354.1 390.7C348.1 390.7 342.6 391 337.6 391.7C335.3 392 333.6 392 332.6 391.7L331.6 391.2L330.6 390.2C329.6 389.2 326.8 389.2 322.1 390.2L320.6 390.7L318.6 391.2L314.1 392.2C310.8 393.2 309.1 393.4 309.1 392.7C309.1 391.7 309.6 391.2 310.6 391.2C310.9 391.2 311.3 390.5 311.6 389.2L312.6 388.2C312.9 387.5 313.4 387.2 314.1 387.2C315.8 386.9 317.9 385.4 320.6 382.7C323.3 380 324.3 378.4 323.6 377.7V377.2H324.6C325.3 377.2 326.4 376.7 328.1 375.7C329.8 374.4 331.4 373 333.1 371.7C335.1 370 337.1 368.4 339.1 366.7C341.4 365 343.1 363.9 344.1 363.2C347.1 361.2 349.3 359.4 350.6 357.7C352.3 355.7 353.6 354.7 354.6 354.7C355.6 354.7 357.9 352.7 361.6 348.7C364.9 345 366.6 342.7 366.6 341.7C366.6 340.7 363.3 336.9 356.6 330.2C349.9 323.2 345.3 318.9 342.6 317.2C338.9 314.9 337.1 313 337.1 311.7C337.1 307.7 332.4 307.5 323.1 311.2L317.6 313.7L312.6 315.7C309.3 317.4 307.3 318.2 306.6 318.2C306.3 318.2 305.6 318.5 304.6 319.2C303.6 320.2 302.6 321.2 301.6 322.2C298.9 324.9 297.4 330.7 297.1 339.7L296.1 353.7L295.1 367.7C294.1 379.4 294.3 389.9 295.6 399.2C295.9 402.2 295.8 406.7 295.1 412.7L293.6 419.2C293.3 421.5 293.1 423.2 293.1 424.2C292.4 426.5 290.1 430.9 286.1 437.2C281.8 443.5 278.1 448 275.1 450.7C271.8 454 270.3 456.2 270.6 457.2C271.3 458.2 270.9 458.9 269.6 459.2C268.6 459.5 267.4 459.4 266.1 458.7C264.8 457.4 263.6 458 262.6 460.7C261.6 463.4 258.1 464.4 252.1 463.7C246.1 463 238.4 460.7 229.1 456.7C220.8 453 215.4 450.2 213.1 448.2C211.8 446.9 209.6 445.2 206.6 443.2C203.9 441.2 202.3 440.2 201.6 440.2C200.9 440.2 198.6 438.5 194.6 435.2C190.6 431.9 188.4 430.2 188.1 430.2C187.4 430.2 182.8 427.7 174.1 422.7C165.4 417.7 161.4 415.2 162.1 415.2C162.8 415.2 160.4 413 155.1 408.7C149.4 404.4 146.1 402.2 145.1 402.2C144.8 402.2 144.1 401.9 143.1 401.2L141.1 399.2C139.1 397.5 137.8 396.7 137.1 396.7L135.6 396.2C134.9 395.9 134.4 395.5 134.1 395.2C133.8 394.5 133.8 394.2 134.1 394.2C134.4 394.2 134.9 394.4 135.6 394.7L137.6 395.2H139.6C140.9 395.5 141.4 396.2 141.1 397.2C140.4 398.5 140.8 398.5 142.1 397.2C143.4 395.9 141.3 392.7 135.6 387.7C129.9 382.7 126.4 380.9 125.1 382.2C123.8 383.5 124.6 385.5 127.6 388.2C130.3 390.5 131.4 391.9 131.1 392.2C130.8 392.5 129.3 391.9 126.6 390.2C124.6 388.5 122.4 389 120.1 391.7C119.4 392.7 118.6 394 117.6 395.7L115.6 400.7C113.6 405 111.9 407.7 110.6 408.7C105.6 412 98.9001 412 90.6001 408.7C88.3001 407.7 83.9001 404.2 77.6001 398.2C70.9001 392.2 67.6001 388.5 67.6001 387.2C67.6001 386.9 67.3001 386 66.6001 384.7C65.9001 383.4 65.1001 382 64.1001 380.7C61.8001 377.7 61.1001 374.9 62.1001 372.2C62.4001 371.2 62.9001 370.4 63.6001 369.7C63.9001 369 64.3001 368.7 64.6001 368.7C64.9001 368.7 65.8001 368.4 67.1001 367.7L70.6001 365.7L76.1001 361.2L81.1001 357.2C85.8001 353.9 89.8001 350.7 93.1001 347.7C95.1001 346 97.3001 344.4 99.6001 342.7C101.3 341.4 102.3 340.7 102.6 340.7C103.3 340.7 103.8 340.4 104.1 339.7L105.1 337.7C105.8 336 107.1 335.4 109.1 335.7C111.1 336.4 112.4 335.2 113.1 332.2C113.1 331.2 114.1 330 116.1 328.7C122.1 325.7 126.4 321.5 129.1 316.2C131.1 312.5 145.8 297.5 173.1 271.2C187.8 257.2 195.1 249.5 195.1 248.2C195.1 247.5 194.9 247 194.6 246.7C193.9 246 193.3 245.5 192.6 245.2C189.6 244.9 188.3 240.2 188.6 231.2C188.9 226.2 189.9 223.5 191.6 223.2C193.9 222.9 196.3 222.2 198.6 221.2C200.9 219.9 202.3 218.7 202.6 217.7C202.9 216.4 204.1 215.7 206.1 215.7C207.4 215.7 211.1 214 217.1 210.7C218.8 209.7 221.4 208.2 225.1 206.2C228.4 204.2 230.6 202.9 231.6 202.2C257.6 189.5 277.8 177.2 292.1 165.2C294.4 163.2 294.8 161.9 293.1 161.2C292.4 160.9 291.1 160.2 289.1 159.2C287.1 158.2 285.3 157 283.6 155.7C273.3 148.4 266.4 145.5 263.1 147.2L261.6 148.2L259.6 149.7C257.9 150.7 256.8 150.9 256.1 150.2C255.8 149.9 255.8 149.5 256.1 149.2L257.6 147.2L259.6 145.2C257.9 145.2 248.9 151 232.6 162.7C216.3 174 208.1 180.4 208.1 181.7L211.1 181.2C212.8 181.2 213.6 181.5 213.6 182.2C213.6 182.9 212.9 183.2 211.6 183.2C211.3 183.2 210.6 183.5 209.6 184.2C208.9 184.5 208.4 185 208.1 185.7C207.8 186.4 207.1 187 206.1 187.7L202.6 189.2C199.6 190.5 197.9 191.5 197.6 192.2C196.9 193.9 195.8 194.7 194.1 194.7L192.1 195.2L190.6 196.7C189.6 197.7 188.9 198.2 188.6 198.2C187.9 197.9 185.6 198.5 181.6 200.2L177.6 201.7C175.9 202.4 174.9 202.7 174.6 202.7C173.9 202.7 171.6 204 167.6 206.7C163.6 209.4 160.4 210.7 158.1 210.7C154.8 211 154.3 210.5 156.6 209.2C158.6 207.9 159.9 207.2 160.6 207.2C161.3 207.2 161.6 206.5 161.6 205.2C161.6 203.5 161.1 202.7 160.1 202.7C159.7 202.7 158.9 203.4 157.6 204.7ZM60.5001 238.3C59.5001 238.3 58.8001 238.6 58.5001 239.3C57.8001 240.3 58.2001 240.8 59.5001 240.8C61.2001 240.8 62.0001 240.3 62.0001 239.3C62.0001 238.6 61.5001 238.3 60.5001 238.3ZM76.5001 239.3C76.2001 239 74.0001 240 70.0001 242.3C66.0001 245 63.2001 247.1 61.5001 248.8C61.2001 249.5 62.5001 249 65.5001 247.3C68.5001 246 71.2001 244.5 73.5001 242.8C75.8001 240.4 76.8001 239.3 76.5001 239.3ZM74.5001 228.3C73.5001 228.6 72.5001 229.5 71.5001 230.8C69.8001 232.5 70.2001 232.6 72.5001 231.3C74.8001 230 76.0001 229.1 76.0001 228.8C76.0001 228.1 75.5001 227.9 74.5001 228.3ZM93.5001 108.7C94.2001 107.7 94.8001 107.2 95.5001 107.2C96.5001 107.2 96.7001 107.7 96.0001 108.7C95.3001 109.7 94.7001 110.2 94.0001 110.2C93.0001 110.2 92.8001 109.7 93.5001 108.7ZM102 106.2C102.7 106.2 101.5 107.5 98.5001 110.2L95.0001 113.7L98.0001 109.7C100.4 107.4 101.7 106.2 102 106.2ZM101 102.2C101 102.9 100.2 103.7 98.5001 104.7C97.5001 105.7 97.0001 106 97.0001 105.7L98.0001 104.2C100 101.5 101 100.9 101 102.2ZM104.5 97.2C105.2 96.5 105.8 96.4 106.5 96.7C106.8 97 106.8 97.4 106.5 97.7L105.5 99.2L104.5 99.7C104.2 100 104 100 104 99.7C104 98.7 104.2 97.9 104.5 97.2ZM109.5 94.7C109.2 94.7 110.7 93 114 89.7C117.3 86.7 120.7 83.9 124 81.2C127.7 78.2 129.8 76.7 130.5 76.7C130.8 76.7 126.5 80.7 117.5 88.7C112.2 93 109.5 95 109.5 94.7ZM129 340.8C128.7 339.5 127.5 340.5 125.5 343.8C123.5 347.1 122.2 350.3 121.5 353.3C120.8 356.3 121.5 357.5 123.5 356.8H124.5L125.5 356.3C126.2 356.3 126.5 356.8 126.5 357.8C126.5 358.1 126.7 358.3 127 358.3C127.7 358.6 128.3 358.6 129 358.3C131.3 358 131.8 358.6 130.5 360.3L130 361.8L129.5 363.8C129.2 365.5 129 367 129 368.3C129 372 131.5 375.5 136.5 378.8C138.5 380.1 140.8 381.6 143.5 383.3C146.2 385 148.5 386.1 150.5 386.8C155.2 389.5 156.2 389.6 153.5 387.3L152 385.8L150 384.3C148.3 383 147 382 146 381.3C143.3 379 148.2 381.5 160.5 388.8L168 393.3C170.7 394.6 173 395.8 175 396.8C179.3 399.5 181.7 400.6 182 400.3C182.3 400 179.3 398 173 394.3L169.5 392.3L166.5 390.8L163.5 388.8C161.8 387.8 162.5 387.5 165.5 387.8C168.8 388.5 172 390 175 392.3C184.7 399.3 194.3 403.5 204 404.8C214 405.8 220 403.5 222 397.8C222.7 394.5 224.8 391.3 228.5 388.3C235.5 381.3 239 371.8 239 359.8C239.3 352.8 239.2 348.6 238.5 347.3C237.5 345.6 235.7 345.6 233 347.3C231.7 348 229.8 348.5 227.5 348.8L224 349.3H220C213 350.3 208 351.6 205 353.3C203.3 354.3 198.5 355.6 190.5 357.3C182.8 359.3 178 360.3 176 360.3C174 360.3 169.7 360.6 163 361.3C153.3 362.3 144.3 358.3 136 349.3C131.4 344.7 129 341.8 129 340.8ZM142 141.7C145.7 141 147.5 140.2 147.5 139.2C147.5 138.2 147.3 137.4 147 136.7C146 136.7 144.7 137 143 137.7L139 140.2C135.7 142.9 133.2 144 131.5 143.7C128.8 143 127.8 143.5 128.5 145.2C129.5 146.5 131.8 148.4 135.5 150.7C139.8 153.4 144.3 157 149 161.7C152.7 165.4 155.3 167 157 166.7C158.7 166 165.5 161.5 177.5 153.2C189.2 144.9 195 140.5 195 140.2C195 139.5 194 137.9 192 135.2C189.7 132.5 187.3 131.5 185 132.2C182.3 133.2 182 132.7 184 130.7C185 129.4 185.2 128.5 184.5 128.2C184.2 128.2 183.2 128.9 181.5 130.2C180.5 130.9 177.3 132.9 172 136.2C167.7 138.5 166.5 138.7 168.5 136.7C169.2 136 173 132.9 180 127.2C179.7 127.2 175.8 129 168.5 132.7C161.5 136.7 157.5 139 156.5 139.7C155.2 141 149.5 142.5 139.5 144.2C137.2 144.9 136 144.9 136 144.2C136 143.6 138 142.7 142 141.7ZM137.5 225.3C138.8 224.3 140.3 223.3 142 222.3L145 221.3C145.3 221.6 144 222.8 141 224.8C139.7 225.8 138.5 226.6 137.5 227.3C136.2 228 135.5 228.1 135.5 227.8C135.2 227.4 135.9 226.6 137.5 225.3ZM147.5 218.8C148.5 218.1 149.7 217.5 151 216.8L153 215.8C153.3 215.8 152.7 216.5 151 217.8C149 219.1 147.7 219.8 147 219.8C146.4 219.8 146.5 219.4 147.5 218.8ZM151.5 132.7C151.2 132.7 150.7 132.9 150 133.2C149.3 133.9 148.8 134.4 148.5 134.7C148.2 135.4 148.2 135.7 148.5 135.7L150 135.2L151 134.2C151.7 133.2 151.9 132.7 151.5 132.7ZM159.1 211.3C161.8 211.3 161.1 212.3 157.1 214.3C155.1 215.3 154.6 215.1 155.6 213.8C156.6 212.1 157.7 211.3 159.1 211.3ZM170.6 54.7C168.9 56 169.1 56.2 171.1 55.2C173.1 54.5 174.1 53.9 174.1 53.2C174.1 52.5 172.9 53 170.6 54.7ZM242.6 160.7C240.3 162.7 238.8 163.7 238.1 163.7C237.1 163.7 235.9 164.5 234.6 166.2L232.6 168.2L230.6 169.7L229.1 170.7L226.6 172.2C224.6 173.5 222.8 174.9 221.1 176.2C218.8 177.9 217.1 178.9 216.1 179.2C215.4 179.2 215.4 178.9 216.1 178.2C216.8 177.2 217.6 176.2 218.6 175.2C219.9 174.2 220.9 173.5 221.6 173.2C223.9 171.9 228.1 168.9 234.1 164.2C240.1 159.5 244.3 156.7 246.6 155.7C249.6 154 251.4 153.2 252.1 153.2C252.8 153.2 252.8 153.5 252.1 154.2C251.4 155.2 250.4 156 249.1 156.7C247.8 157.7 246.9 158.2 246.6 158.2C245.9 158.2 244.6 159.1 242.6 160.7ZM225.6 99.2L225.1 99.7L224.1 100.2C223.4 101.2 223.6 101.7 224.6 101.7C225.6 101.7 226.1 101.2 226.1 100.2C226.1 99.5 225.9 99.2 225.6 99.2ZM271.6 85.7L269.1 86.2L266.6 86.7C264.6 86.7 263.3 86.5 262.6 86.2C261.6 85.5 259.9 85.7 257.6 86.7C255.3 87.7 254.1 88.9 254.1 90.2C254.1 90.5 253.8 90.7 253.1 90.7L252.1 91.2C250.8 91.2 250.3 91.5 250.6 92.2C250.9 93.2 249.8 93.7 247.1 93.7L244.1 94.2C243.4 94.2 243.1 94.5 243.1 95.2C243.1 96.2 241.8 97.7 239.1 99.7C236.8 101.7 234.4 103 232.1 103.7C228.1 105 229.1 107 235.1 109.7C238.4 111 243.1 109.9 249.1 106.2C252.4 104.2 255.6 102.2 258.6 100.2C259.6 100.2 262.6 98.4 267.6 94.7C272.3 91.4 274.9 89.2 275.6 88.2C276.9 85.9 275.6 85 271.6 85.7ZM240.1 96.2C238.4 96.2 237.3 96.7 236.6 97.7C236.3 98.4 236.4 98.7 237.1 98.7C237.8 98.7 238.8 98.4 240.1 97.7C241.4 96.7 241.4 96.2 240.1 96.2ZM241.6 94.2L242.1 92.7V91.2C242.1 90.9 241.9 90.7 241.6 90.7C240.6 90.7 239.9 91.2 239.6 92.2C239.3 92.9 239.4 93.5 240.1 94.2C240.4 94.5 240.9 94.5 241.6 94.2ZM271.6 75.2C271.6 74.9 268.6 75.9 262.6 78.2C257.6 80.5 251.3 84.7 243.6 90.7L248.1 87.7C251.1 85.7 256.1 83.2 263.1 80.2C268.8 77.5 271.6 75.9 271.6 75.2ZM278.1 132.7C278.4 132 279.1 131.4 280.1 130.7C281.1 130 281.8 129.7 282.1 129.7C282.4 130 282.1 130.9 281.1 132.2C279.8 133.5 278.6 134.2 277.6 134.2C277.3 134.2 277.4 133.7 278.1 132.7ZM330.6 368.8C331.3 368.1 332.3 367.3 333.6 366.3C334.6 365 335.6 364 336.6 363.3C337.6 362.6 338.3 362.5 338.6 362.8C339.3 363.1 338.1 364.5 335.1 366.8C332.4 369.1 330.6 370.3 329.6 370.3C329.3 370.3 329.6 369.8 330.6 368.8ZM333.6 216.8C332.9 217.1 332.3 218 331.6 219.3C330.3 221 330.4 221.3 332.1 220.3C332.8 219.3 333.6 218.5 334.6 217.8C334.6 217.1 334.3 216.8 333.6 216.8ZM338.6 349.8C339.3 349.5 339.8 349.3 340.1 349.3C341.4 349.3 340.9 350.5 338.6 352.8C336.6 354.5 336.1 354.3 337.1 352.3C337.5 351.3 338 350.5 338.6 349.8ZM339.1 358.3C340.4 357 341.9 355.6 343.6 354.3L346.6 352.3C346.9 352.3 345.9 353.6 343.6 356.3C340.3 359 338.4 360.3 338.1 360.3C337.5 360.3 337.8 359.7 339.1 358.3ZM387.2 149.7C386.2 149.7 384.9 150.2 383.2 151.2C381.9 152.5 380.7 153.7 379.7 154.7C379 155.7 379 156.4 379.7 156.7L381.2 157.7C381.9 158 382.4 158.2 382.7 158.2C383.4 158.2 384.7 157.2 386.7 155.2C388.4 153.2 389.2 151.7 389.2 150.7C389.2 149.7 388.5 149.4 387.2 149.7Z" fill="#222222" fill-opacity="0.05"/>
</svg>
