<svg width="75" height="75" viewBox="0 0 75 75" fill="none" xmlns="http://www.w3.org/2000/svg">
<path d="M74.9915 37.3381C73.9578 39.6833 72.4303 41.5811 70.0851 42.7383C68.6348 43.448 67.0919 43.772 65.4873 43.772C46.8183 43.772 28.1493 43.7874 9.48032 43.7566C5.45338 43.7566 2.47559 41.8897 0.485262 38.3719C-0.702765 36.2581 0.747554 34.6072 2.66074 34.6381C7.45914 34.7152 11.3781 32.8329 14.2324 28.914C14.9113 27.9728 15.7445 27.5871 16.9016 27.6025C30.6334 27.6179 44.3805 27.6179 58.1123 27.6025C59.2695 27.6025 60.1026 27.9882 60.7815 28.9294C63.0187 32.0615 66.089 33.8975 69.8691 34.5147C70.6097 34.6381 71.3812 34.7152 72.1217 34.6689C73.4795 34.5764 74.4361 35.0701 74.9761 36.3198C74.9915 36.6593 74.9915 36.9987 74.9915 37.3381Z" fill="#222222"/>
<path d="M52.1565 0C53.4371 0.524583 53.9309 1.49661 53.8229 2.83892C53.7766 3.47151 53.8691 4.11952 53.8074 4.73668C53.6994 5.75499 54.0543 6.54186 54.6714 7.32874C57.9732 11.51 62.2162 13.8397 67.57 14.0866C68.002 14.102 68.4495 14.1483 68.8661 14.2872C70.3318 14.8118 70.7484 16.6015 69.6684 17.8358C67.2152 20.5976 64.3145 22.5879 60.5499 23.0662C59.7321 23.1742 58.899 23.2205 58.0658 23.2205C44.3495 23.236 30.6486 23.2051 16.9323 23.236C12.1802 23.2514 8.41553 21.3382 5.32974 17.8358C4.74344 17.157 4.52744 16.3701 4.86687 15.5215C5.19088 14.7192 5.82347 14.2872 6.68749 14.1483C8.55439 13.8552 10.483 13.7009 12.2728 13.1454C16.0066 12.0037 18.7992 9.5505 21.0055 6.37215C21.1444 6.17157 21.1752 5.86299 21.1752 5.61613C21.1907 4.69039 21.237 3.76466 21.1752 2.83892C21.0827 1.49661 21.5764 0.524583 22.8416 0C23.181 0 23.5204 0 23.8599 0C25.1559 0.493726 25.6651 1.46575 25.5725 2.80806C25.5416 3.40979 25.5725 4.01152 25.5725 4.65953C33.5338 4.65953 41.4334 4.65953 49.3947 4.65953C49.3947 4.02695 49.4256 3.40979 49.3947 2.80806C49.3176 1.46575 49.8113 0.493726 51.1074 0C51.4622 0 51.8017 0 52.1565 0Z" fill="#222222"/>
<path d="M74.9914 73.3647C74.4051 74.6299 73.4023 75.0002 72.0445 75.0002C48.9165 74.9693 25.7886 74.9847 2.6452 74.9847C1.24117 74.9847 0.408009 74.4602 0.0994309 73.3647C0.0222863 73.1178 0.0068573 72.8401 0.0068573 72.5778C0.0068573 70.6801 -0.00857162 68.7669 0.0068573 66.8691C0.0222862 65.3879 0.901735 64.5085 2.36748 64.4622C2.5372 64.4622 2.70692 64.4622 2.87664 64.4622C25.9892 64.4622 49.0863 64.4622 72.1988 64.4468C73.5565 64.4468 74.5131 64.8942 74.9914 66.2057C74.9914 68.5817 74.9914 70.9732 74.9914 73.3647Z" fill="#222222"/>
<path d="M51.123 0C49.8269 0.493726 49.3332 1.46575 49.4104 2.80806C49.4412 3.40979 49.4104 4.01152 49.4104 4.65953C41.449 4.65953 33.5494 4.65953 25.5881 4.65953C25.5881 4.02695 25.5572 3.40979 25.5881 2.80806C25.6807 1.46575 25.1715 0.493726 23.8755 0C32.9631 0 42.0508 0 51.123 0Z" fill="white"/>
<path d="M67.9558 48.092C67.9558 48.308 67.9558 48.5549 67.9558 48.7863C67.9558 51.7178 67.9558 54.6493 67.9558 57.5653C67.9558 59.386 67.138 60.2037 65.3174 60.2037C63.8825 60.2037 62.4477 60.2037 60.951 60.2037C60.9048 59.3088 60.8739 58.4757 60.7968 57.6271C60.519 53.9704 57.063 51.1623 53.4217 51.4709C50.0737 51.7641 47.065 54.5259 47.065 58.5991C47.065 59.1082 47.065 59.6174 47.065 60.1574C46.1701 60.1574 45.337 60.1574 44.4112 60.1574C44.4112 59.602 44.4112 59.062 44.4112 58.5065C44.3958 55.2047 42.4981 52.6435 39.3505 51.6869C35.2619 50.4372 30.7875 53.6464 30.6332 57.9202C30.6023 58.6454 30.6332 59.3705 30.6332 60.142C29.7229 60.142 28.9052 60.142 28.0103 60.142C27.964 59.2625 27.9177 58.3831 27.856 57.4882C27.6246 54.495 24.8782 51.8104 21.885 51.4709C18.2592 51.0698 15.0963 53.4767 14.3711 56.6705C14.2168 57.3802 14.2014 58.1208 14.1397 58.846C14.1088 59.2471 14.1397 59.6637 14.1397 60.1111C12.3036 60.1111 10.5293 60.1883 8.75499 60.0803C7.81383 60.0185 7.10409 59.0774 7.08867 58.0282C7.05781 54.7264 7.08867 51.4401 7.08867 48.1383C7.08867 48.092 7.13495 48.0457 7.13495 48.0303C27.3777 48.092 47.6205 48.092 67.9558 48.092Z" fill="#222222"/>
<path d="M18.5678 60.1728C18.5678 59.4014 18.5061 58.7071 18.5832 58.0128C18.7221 56.7476 19.8021 55.8373 21.0364 55.8527C22.2399 55.8527 23.2736 56.7322 23.4896 57.9665C23.5359 58.1979 23.5513 58.4448 23.5513 58.6917C23.5668 59.1699 23.5513 59.6637 23.5513 60.1883C21.8696 60.1728 20.2496 60.1728 18.5678 60.1728Z" fill="#222222"/>
<path d="M51.524 60.1729C51.524 59.3861 51.4469 58.6455 51.5395 57.9357C51.7092 56.7014 52.7738 55.8374 53.9772 55.8374C55.2115 55.8374 56.2761 56.7477 56.4304 58.0129C56.5076 58.7072 56.4459 59.4169 56.4459 60.1729C54.8104 60.1729 53.1749 60.1729 51.524 60.1729Z" fill="#222222"/>
<path d="M39.9986 60.2039C38.3169 60.2039 36.7123 60.2039 35.046 60.2039C35.046 59.4016 34.9534 58.6302 35.0614 57.8742C35.2311 56.6707 36.45 55.7758 37.6535 55.8684C38.9186 55.961 39.9215 56.933 39.9832 58.1673C40.0295 58.7999 39.9986 59.4633 39.9986 60.2039Z" fill="#222222"/>
</svg>
