<svg width="70" height="75" viewBox="0 0 70 75" fill="none" xmlns="http://www.w3.org/2000/svg">
<path d="M40.9328 0.0154384C42.1679 0.432277 43.4956 0.69473 44.6226 1.29683C46.9847 2.53191 48.3279 4.63154 48.9454 7.19432C49.0843 7.7501 49.3005 7.85817 49.8408 7.8273C52.3882 7.65747 54.2562 8.73816 55.2288 11.0076C55.5222 11.6869 55.8618 11.7795 56.4948 11.7178C58.965 11.5016 61.1263 12.9683 61.8674 15.3149C62.6393 17.8005 61.3888 20.5177 58.965 21.5521C56.5566 22.5865 53.6541 21.6756 52.4808 19.3444C51.9868 18.3563 51.5391 17.9086 50.3349 18.0476C48.9454 18.2019 47.7566 17.4763 46.7377 16.5191C46.537 16.3339 46.3517 16.1486 46.151 15.9788C45.3482 16.4265 44.6072 16.9514 43.789 17.3065C39.1883 19.2517 34.4024 17.5381 32.0248 13.0764C31.7006 12.4588 31.4536 12.2736 30.7126 12.5051C29.8172 12.783 28.86 12.8448 27.9182 12.9065C27.4396 12.9374 27.2544 13.0455 27.1617 13.5395C26.7449 15.809 25.4944 17.3683 23.2249 17.9395C22.6228 18.0939 21.9744 18.063 21.3414 18.0321C20.8783 18.0167 20.6158 18.0939 20.3997 18.5725C20.1064 19.2517 19.6587 19.8693 19.3962 20.317C17.9913 19.9928 16.7871 19.576 15.5675 19.4525C14.3015 19.3289 13.0664 19.7767 11.9703 20.5177C10.4573 18.9121 9.9633 17.0904 10.7198 15.0988C11.785 12.2736 14.0391 11.3781 16.818 11.7487C17.2348 11.0231 17.5436 10.3283 17.9913 9.72622C18.825 8.59922 20.0292 7.99712 21.4032 7.79642C21.9435 7.71923 22.0825 7.50309 22.0516 6.97818C21.8355 3.50453 24.2439 0.524907 27.6558 0.0771923C27.7021 0.0771923 27.733 0.0308769 27.7793 0C28.2733 0 28.7519 0 29.2459 0C31.0213 0.339646 32.5034 1.2042 33.6922 2.50103C34.6031 1.92981 35.4059 1.32771 36.3167 0.926307C37.243 0.509469 38.2465 0.308769 39.2192 0.0154384C39.775 0.0154384 40.3462 0.0154384 40.9328 0.0154384Z" fill="#222222"/>
<path d="M39.1881 0.0154384C38.2155 0.308769 37.1965 0.509469 36.2857 0.926307C35.3902 1.32771 34.5874 1.94524 33.6611 2.50103C32.4878 1.2042 30.9903 0.339646 29.2148 0C32.5341 0.0154385 35.8534 0.0154384 39.1881 0.0154384Z" fill="white"/>
<path d="M26.328 19.8385C27.1617 18.9585 27.8719 18.202 28.5666 17.4609C28.5975 17.6616 28.6901 18.0476 28.7364 18.449C29.0761 21.0735 29.987 23.5128 31.3147 25.7823C32.4262 27.6812 34.1399 28.5921 36.3322 28.4222C38.4318 28.2679 39.9602 27.1563 40.7784 25.2265C41.3342 23.8833 41.7665 22.4784 42.1988 21.0735C42.3532 20.5795 42.6156 20.3788 43.0788 20.2399C43.897 19.9928 44.6689 19.5914 45.4872 19.4062C45.904 19.3136 46.3826 19.5451 46.9384 19.6532C46.784 19.9311 46.7531 20.0237 46.6914 20.0855C43.9433 23.2195 43.3567 26.7703 44.6535 30.6608C44.9159 31.4482 44.8233 31.7878 44.1286 32.2973C43.3721 32.8531 42.7854 33.6868 42.2296 34.4741C41.9672 34.8292 41.7511 35.0762 41.3033 35.1688C38.2928 35.8173 36.1778 38.4572 36.2395 41.4832C36.2858 44.5091 38.4627 47.2417 41.4268 47.7203C42.9244 47.9673 44.4991 47.8438 46.0275 47.8901C46.3363 47.9056 46.645 47.8901 47.2317 47.8901C44.9623 49.6655 45.2865 52.0276 45.271 54.3125C36.8262 54.3125 28.474 54.3125 19.9365 54.3125C20.2299 54.0809 20.3997 53.9266 20.6004 53.7876C23.9042 51.441 26.2508 48.3533 27.4705 44.4782C27.8564 43.2277 28.0571 41.9154 28.2733 40.6186C28.3505 40.1709 28.4585 39.9548 28.9217 39.8313C31.5617 39.0593 33.3989 36.7744 33.5687 34.1345C33.7539 31.3401 32.3182 28.8082 29.6782 27.7893C28.5975 27.3724 28.3196 26.8321 28.227 25.7823C28.0726 23.5591 27.2852 21.4904 26.328 19.8385Z" fill="#222222"/>
<path d="M65.9585 37.5001C67.7031 37.6545 68.9844 38.4418 69.602 40.0629C70.4974 42.4095 68.9227 44.9414 66.4062 45.2502C66.1438 45.2811 65.8659 45.2811 65.6034 45.2811C58.0849 45.2811 50.5664 45.2811 43.0478 45.2811C41.0717 45.2811 39.6051 44.3085 39.0493 42.6874C38.4472 40.8966 39.1882 38.9359 40.8093 38.025C42.5075 37.0833 44.5145 37.5001 45.7341 39.0439C45.8268 39.152 45.9194 39.2755 46.0583 39.4453C46.4289 39.2292 46.8148 39.0285 47.1853 38.8124C47.5404 38.6117 47.8955 38.3955 48.266 38.1794C47.4632 36.7745 46.2745 35.8791 44.7615 35.2924C45.3945 34.3661 46.2436 33.7794 47.2934 33.7486C48.266 33.7177 49.2541 33.9338 50.273 34.0419C50.3657 33.6405 50.4737 33.1619 50.5972 32.6987C51.0295 31.1395 52.0485 30.1668 53.6232 29.8581C55.1053 29.5647 56.3712 30.0588 57.3284 31.2321C57.56 31.51 57.7607 31.6644 58.1158 31.4791C61.2961 29.9661 66.221 32.4054 65.9585 37.5001Z" fill="#222222"/>
<path d="M3.95764 29.7035C4.51342 26.0755 7.94076 23.7288 11.7232 24.933C12.4642 22.9878 13.8228 21.7836 15.9842 22.046C18.4389 22.3393 19.3189 24.1611 19.5968 26.4614C21.6964 25.6586 23.5953 25.566 25.1238 27.5112C23.6262 28.0979 22.4375 28.9624 21.6038 30.4137C22.314 30.8305 23.0087 31.2473 23.7034 31.6487C24.0585 31.2937 24.3827 30.9386 24.7532 30.6452C26.0809 29.58 27.8564 29.4874 29.2613 30.3982C30.6353 31.2782 31.3146 33.0536 30.8977 34.6129C30.4655 36.2185 29.0914 37.3764 27.4241 37.5153C27.2543 37.5308 27.0844 37.5308 26.9146 37.5308C19.3189 37.5308 11.7232 37.5308 4.12746 37.5308C2.5373 37.5308 1.27135 36.9132 0.483985 35.5083C-0.735653 33.3006 0.453108 30.568 2.89238 29.9196C3.23203 29.827 3.57168 29.7807 3.95764 29.7035Z" fill="#222222"/>
<path d="M55.4448 62.1704C55.2595 63.6062 55.1206 64.9956 54.9044 66.3697C54.5493 68.5928 53.0827 69.8433 50.8287 69.8742C48.9452 69.9051 47.0617 69.8742 45.1936 69.8742C36.6253 69.8742 28.0415 69.8742 19.4732 69.8742C16.6016 69.8742 15.1504 68.5465 14.8571 65.7058C14.7336 64.5479 14.5792 63.39 14.4248 62.1704C28.0878 62.1704 41.72 62.1704 55.4448 62.1704Z" fill="#222222"/>
<path d="M10.3801 59.4534C10.3801 58.6043 10.3801 57.8169 10.3801 56.9678C26.7603 56.9678 43.0942 56.9678 59.4744 56.9678C59.4744 57.8169 59.4744 58.6043 59.4744 59.4534C43.1251 59.4534 26.7912 59.4534 10.3801 59.4534Z" fill="#222222"/>
<path d="M21.6191 49.5421C20.6619 46.9948 18.8402 45.6671 16.4936 44.8951C15.7062 44.6327 14.9343 44.3393 14.1778 43.9997C12.6494 43.3204 11.7694 41.9464 11.6768 40.1401C12.4641 40.1401 13.2669 40.1247 14.0543 40.1555C14.2087 40.1555 14.3785 40.3562 14.4866 40.5106C15.3357 41.6067 16.4472 42.3323 17.7286 42.8109C18.6395 43.1506 19.5658 43.4902 20.4612 43.8453C21.7426 44.3548 22.5917 45.2502 23.0703 46.547C23.2865 47.1337 23.2556 47.6123 22.8233 48.0909C22.4219 48.5077 22.0668 48.9863 21.6191 49.5421Z" fill="#222222"/>
<path d="M47.88 54.3585C47.88 53.4014 47.8336 52.5214 47.8954 51.6568C47.9726 50.5761 48.6056 49.8968 49.6245 49.5263C50.9368 49.0323 52.249 48.4919 53.5459 47.967C53.6385 47.9361 53.7311 47.9053 53.8238 47.9053C55.2595 47.9053 56.6953 47.9053 58.1311 47.9053C58.1156 49.0323 57.6062 49.7116 56.51 50.113C55.7536 50.3909 54.9971 50.6379 54.2252 50.8695C52.6041 51.3481 51.4462 52.3361 50.7978 53.9108C50.7206 54.0961 50.4427 54.3277 50.242 54.3431C49.501 54.3894 48.7445 54.3585 47.88 54.3585Z" fill="#222222"/>
<path d="M20.7546 72.4834C22.4837 72.4834 24.1357 72.4834 25.8339 72.4834C25.8339 73.3325 25.8339 74.1507 25.8339 74.9999C24.1357 74.9999 22.4683 74.9999 20.7546 74.9999C20.7546 74.1662 20.7546 73.348 20.7546 72.4834Z" fill="#222222"/>
<path d="M44.0205 74.9844C44.0205 74.1507 44.0205 73.348 44.0205 72.4834C45.7033 72.4834 47.3707 72.4834 49.0998 72.4834C49.0998 73.3016 49.0998 74.1199 49.0998 74.9844C47.4478 74.9844 45.7805 74.9844 44.0205 74.9844Z" fill="#222222"/>
</svg>
