<svg width="67" height="75" viewBox="0 0 67 75" fill="none" xmlns="http://www.w3.org/2000/svg">
<path d="M0 55.2321C0.0833942 55.0431 0.166788 54.8383 0.236283 54.6493C0.806143 53.1056 2.22384 52.2078 3.62765 52.4913C5.10094 52.8064 6.18507 54.1767 6.19897 55.8621C6.22676 58.2248 6.19897 60.6033 6.21286 62.966C6.21286 65.9902 7.95024 67.9749 10.6189 67.9749C25.602 67.9749 40.5991 67.9749 55.5822 67.9749C58.2091 67.9749 59.9743 65.9902 59.9743 63.029C59.9743 46.0175 59.9743 29.0061 59.9743 11.9946C59.9743 9.03339 58.223 7.04873 55.5822 7.04873C40.5991 7.04873 25.602 7.04873 10.6189 7.04873C7.95024 7.04873 6.22676 9.01764 6.21286 12.0419C6.21286 14.2943 6.21286 16.531 6.21286 18.7835C6.21286 20.7839 5.17044 22.2488 3.57205 22.5323C2.05706 22.8158 0.70885 21.8077 0.125091 19.9491C0.111192 19.8861 0.0555962 19.8388 0.0138991 19.7758C0.0138991 16.657 0.0138991 13.5225 0.0138991 10.4038C0.0555962 10.2462 0.111192 10.0887 0.13899 9.93122C0.875639 4.35525 5.18434 0.0393783 10.1602 0.023627C25.4491 -0.00787567 40.7241 -0.00787567 56.0131 0.023627C61.5449 0.0393783 66.1455 5.23732 66.1594 11.5221C66.1872 28.8486 66.1872 46.1593 66.1594 63.4858C66.1594 68.3057 63.3657 72.6688 59.3488 74.2754C58.5844 74.5747 57.7782 74.7637 56.9999 75C41.0577 75 25.1294 75 9.18726 75C9.07606 74.9528 8.95097 74.8897 8.83978 74.874C4.46159 73.9447 1.62619 71.0622 0.361375 66.2265C0.222384 65.691 0.13899 65.1554 0.0277979 64.6041C-1.59476e-07 61.4696 0 58.3508 0 55.2321Z" fill="#222222"/>
<path d="M0 36.7716C0.444769 35.4327 1.15362 34.3774 2.47403 34.0781C2.8076 33.9993 3.15508 33.9993 3.50255 33.9993C11.8976 33.9993 20.2926 33.9993 28.6876 33.9993C28.9239 33.9993 29.1602 33.9993 29.5493 33.9993C29.313 33.7158 29.174 33.5268 29.0212 33.3535C27.1031 31.1799 25.1711 29.0219 23.267 26.8325C21.5435 24.8478 22.2245 21.6503 24.5457 20.9257C25.7966 20.5319 26.8529 20.9572 27.7702 21.9968C31.5369 26.2812 35.3174 30.5498 39.0841 34.8342C39.2925 35.0704 39.501 35.3382 39.6678 35.6217C40.5018 37.0709 40.3072 38.8193 39.1397 40.1424C36.6517 42.9776 34.1499 45.7971 31.6481 48.6323C30.2721 50.1917 28.9239 51.7511 27.534 53.279C26.4081 54.5076 24.6986 54.5863 23.5171 53.531C22.3218 52.4757 21.9466 50.617 22.6554 49.1364C22.8639 48.7111 23.1558 48.3331 23.4477 48.0023C25.2823 45.9074 27.1309 43.8282 28.9656 41.7333C29.1324 41.5442 29.2852 41.3552 29.5493 41.0402C29.1879 41.0402 28.9656 41.0402 28.7432 41.0402C20.4594 41.0402 12.1616 41.0087 3.87783 41.0717C1.95976 41.0874 0.639355 40.3471 0 38.268C0 37.7482 0 37.2599 0 36.7716Z" fill="#222222"/>
</svg>
