<svg width="460" height="461" viewBox="0 0 460 461" fill="none" xmlns="http://www.w3.org/2000/svg">
<path d="M151.644 107.203C152.644 107.903 154.144 109.003 156.044 110.703C160.644 114.603 163.244 116.603 163.944 116.603C164.944 116.603 166.044 117.903 167.444 120.503C168.144 121.503 168.744 122.503 169.444 123.503C170.444 124.503 171.444 125.203 172.444 125.503C173.744 125.803 174.444 127.303 174.444 129.903V132.903C174.444 134.203 174.744 135.203 175.444 135.903C177.044 137.903 177.044 140.503 175.444 143.803L174.944 145.303L174.444 146.803C174.444 147.803 174.144 148.303 173.444 148.303C173.144 148.303 172.744 148.503 172.444 148.803L171.944 150.303C171.944 150.603 171.444 151.603 170.444 153.303C169.444 155.603 168.344 157.703 166.944 159.703C161.344 168.603 156.544 184.203 152.644 206.603C151.644 211.203 150.944 217.503 150.644 225.403C150.644 233.303 150.944 237.603 151.644 238.203C152.344 238.903 161.044 230.503 177.844 213.003L204.044 186.803V175.403C204.744 130.703 209.344 91.8034 217.844 58.9034L219.344 52.5034C219.644 51.2034 220.144 49.5034 220.844 47.6034L221.844 42.2034C223.144 42.5034 224.644 43.2034 226.244 44.2034C230.844 46.8034 233.844 51.3034 235.144 57.5034C237.444 69.0034 237.744 86.0034 236.144 108.303L235.144 122.103L234.144 135.403C233.144 146.303 232.444 154.203 232.144 159.103C231.844 163.403 231.444 168.003 231.144 172.903L229.644 185.203C228.944 194.403 229.144 203.503 230.144 212.303C231.444 224.103 232.144 231.103 232.144 233.003L231.644 237.903L235.544 234.403C236.844 233.103 241.444 227.703 249.344 218.103L253.744 213.203L257.644 208.303C260.244 205.003 261.944 203.003 262.544 202.403C266.444 197.503 274.044 185.103 285.244 165.403C296.144 145.303 304.144 129.503 309.444 118.003C312.744 111.403 314.744 107.603 315.344 106.603C317.944 102.703 318.444 100.703 316.844 100.703C314.844 100.403 311.244 102.203 305.944 106.103C283.544 122.203 267.144 128.503 256.544 124.903C255.544 124.603 254.544 124.203 253.544 123.903H251.544C249.844 123.903 248.744 123.403 248.044 122.403C246.344 120.403 246.744 116.303 249.044 110.103L250.044 106.203L251.544 102.703C252.844 99.7034 253.644 97.8034 254.044 96.8034C256.044 92.2034 257.544 89.9034 258.444 89.9034C259.744 89.9034 261.944 88.1034 264.844 84.5034C270.444 77.6034 280.444 68.7034 294.944 57.8034C309.344 46.9034 320.744 39.4034 329.344 35.1034C333.944 33.5034 336.944 31.6034 338.244 29.7034C340.844 26.7034 345.844 27.1034 353.044 30.7034C354.344 31.4034 355.644 32.0034 356.944 32.7034C358.244 33.0034 359.044 33.2034 359.444 33.2034C361.044 33.2034 364.544 34.5034 369.844 37.1034C371.444 37.8034 373.444 38.8034 375.744 40.1034L378.244 41.1034L379.744 42.1034C383.644 43.8034 389.444 47.9034 397.044 54.4034C404.944 60.7034 410.044 65.8034 412.344 69.7034C417.644 77.6034 420.944 86.3034 422.244 95.9034C422.944 101.203 418.944 112.003 410.444 128.503C396.944 155.803 387.244 172.103 381.344 177.403C378.044 180.403 376.544 182.203 376.944 182.803C376.944 183.103 379.244 184.603 383.844 187.203C388.444 189.803 390.944 193.003 391.244 196.603C391.544 198.303 391.444 199.903 390.744 201.503L389.244 205.403C387.944 208.403 387.744 211.003 388.744 213.303C390.344 218.603 386.744 224.803 377.844 232.103C375.544 233.803 372.744 236.003 369.444 239.003C366.844 241.603 364.344 243.903 362.044 245.903C358.144 250.203 354.344 253.303 350.644 255.303C347.344 257.303 344.244 260.203 341.244 264.203L337.344 270.103L332.944 276.003C321.744 290.803 318.444 298.903 323.044 300.203C327.944 301.903 332.244 308.303 335.844 319.503C337.844 326.403 338.444 335.603 337.844 347.103L336.344 361.903L335.344 369.303L334.844 376.203L333.844 385.603L340.744 388.603C345.644 391.203 351.744 393.003 359.044 394.003C366.244 395.303 371.344 395.303 374.344 394.003C376.944 393.003 380.144 390.703 383.744 387.103C387.644 383.203 390.344 379.903 391.644 377.203C392.944 374.203 392.644 367.703 390.644 357.503L388.644 349.603L387.144 341.703L384.144 326.903C381.544 315.703 378.744 305.503 375.744 296.303C368.144 273.303 365.244 261.103 366.844 259.803C367.144 259.103 369.444 263.303 373.744 272.103C378.044 281.303 381.944 290.203 385.544 298.803L390.444 309.203C384.144 290.103 381.344 279.903 382.044 278.603C382.344 276.603 382.044 276.303 381.044 277.603C380.044 279.303 379.744 278.403 380.044 275.103C380.744 271.803 380.744 270.703 380.044 271.603C379.344 272.903 379.044 271.403 379.044 267.203C379.044 263.603 378.744 260.503 378.044 257.803C375.744 250.603 379.544 257.303 389.444 278.003L395.344 290.303C396.944 293.603 398.844 297.403 400.744 301.703L402.744 306.103L403.744 308.103L404.744 310.103C405.744 312.103 406.244 313.203 406.244 313.603C408.844 317.903 410.544 321.803 411.144 325.403C412.144 330.703 415.044 339.203 420.044 351.103C424.944 362.603 428.944 370.503 431.844 374.803C433.144 376.803 433.644 376.903 433.344 375.303C432.044 370.003 429.244 361.603 424.944 350.103L422.444 343.703L419.444 336.803C417.444 331.903 415.944 328.103 415.044 325.403C414.744 324.103 414.044 322.303 413.044 320.003L410.544 314.103C408.544 309.803 407.544 307.503 407.544 307.203C408.244 306.503 410.044 308.703 412.944 313.603C415.944 318.203 418.044 322.503 419.344 326.403C420.344 329.403 421.944 333.003 424.244 337.303C426.244 341.603 427.744 345.203 428.644 348.203C430.644 353.503 433.044 359.203 436.044 365.503L438.044 369.403L440.044 373.803C442.044 377.803 443.644 381.403 444.944 384.703C453.844 405.403 458.644 417.403 459.244 420.703C459.944 424.603 458.544 428.303 455.344 431.603C454.044 432.903 452.844 434.403 451.844 436.003C450.844 437.303 450.344 438.303 450.344 439.003C450.344 440.303 449.144 441.603 446.844 442.903C444.544 444.503 442.444 445.403 440.444 445.403C438.444 445.403 434.544 446.903 428.644 449.803L419.244 454.203H397.544C382.444 453.903 371.344 452.503 364.444 450.303C361.144 449.003 357.844 447.503 354.544 445.903C350.644 443.903 347.644 442.303 345.644 441.003C340.344 437.403 337.444 435.603 336.744 435.603C336.444 435.603 333.644 434.003 328.344 430.703L320.444 425.803L313.544 421.903C309.644 418.903 304.944 414.503 299.744 408.603C294.844 403.003 291.144 398.203 288.844 394.303C286.844 390.403 286.044 379.803 286.344 362.703V338.003L281.944 343.403C280.244 345.403 278.944 346.903 278.044 347.803L277.044 349.303L276.544 350.303C275.244 352.303 273.244 354.703 270.644 357.703C266.744 361.603 264.344 365.303 263.744 368.603C263.044 370.903 261.644 373.003 259.344 375.003C256.744 377.003 254.544 377.803 252.944 377.503C251.244 377.503 249.444 379.003 247.544 381.903C245.844 384.203 243.944 386.203 241.644 387.803C239.344 389.403 237.844 389.903 237.244 389.303C236.944 389.003 240.344 384.903 247.644 377.003C254.844 369.103 258.044 364.703 257.044 363.703C256.344 363.003 255.744 363.403 255.044 364.703C254.744 366.403 251.244 370.603 244.644 377.503C238.344 385.103 233.244 390.503 229.344 393.803C225.044 398.103 222.944 401.003 222.944 402.703C222.944 403.403 222.444 404.203 221.444 405.203C220.444 406.203 219.344 407.203 217.944 408.203C214.644 409.803 213.344 410.003 214.044 408.703C214.344 407.003 213.844 406.703 212.544 407.703C210.844 408.703 209.544 410.203 208.644 412.103C207.944 413.403 203.844 417.203 196.344 423.503L200.244 418.103L204.144 413.703L208.044 408.803C214.244 400.603 214.144 399.603 207.544 405.803C206.544 407.103 205.244 408.303 203.644 409.303C202.344 410.303 201.544 410.603 201.144 410.303C200.144 409.603 197.044 412.103 191.744 417.703C186.444 423.303 183.544 427.203 182.844 429.503C181.544 431.803 180.544 432.803 179.844 432.503C178.844 431.803 178.544 432.203 178.844 433.503C179.544 434.803 179.144 436.103 177.844 437.503C176.844 438.203 176.144 438.503 175.844 438.503C175.844 438.203 175.144 438.503 173.844 439.503C172.544 440.503 171.244 441.603 169.944 443.003C166.044 446.603 162.544 448.403 159.544 448.403C156.944 448.403 154.944 449.103 153.644 450.403C152.644 451.403 152.144 451.403 152.144 450.403C152.144 449.703 152.844 448.303 154.144 446.003C154.444 445.003 155.744 443.503 158.044 441.603L161.544 438.603L165.044 435.103C170.944 429.503 173.444 426.203 172.444 425.203C171.744 424.903 170.944 425.003 169.944 425.703C168.944 426.403 168.744 427.003 169.444 427.703C169.744 428.003 168.644 429.303 165.944 431.603L162.944 434.103L159.944 437.103C156.344 440.703 151.744 444.003 146.144 447.003C139.844 450.003 135.644 451.303 133.344 450.903C131.044 450.203 129.544 451.203 128.944 453.903C128.244 456.903 126.944 458.503 125.044 458.803L122.044 459.303L118.544 460.303C114.644 461.903 113.744 460.803 116.044 456.803C116.344 456.103 116.544 455.003 116.544 453.303L115.544 448.903C114.844 445.303 115.044 443.103 116.044 442.503C117.344 441.503 118.544 440.003 119.544 438.103C120.844 436.103 121.544 434.503 121.544 433.203C121.544 431.903 119.744 434.003 116.144 439.603C114.844 441.603 113.144 443.703 111.244 446.003C109.944 448.303 108.744 449.803 107.744 450.403C105.444 452.003 103.444 451.903 101.844 449.903L100.344 447.903L97.8438 444.903C96.1438 442.603 94.7438 440.503 93.4438 438.503C90.1438 432.603 89.6438 427.603 91.9438 423.703C96.8438 414.503 99.3438 398.903 99.3438 376.803C99.3438 365.303 98.6438 359.703 97.3438 360.003C96.0438 360.703 95.3438 360.503 95.3438 359.503C95.3438 357.503 92.7438 358.403 87.4438 362.003C81.8438 365.603 77.9438 369.403 75.6438 373.403C71.0438 379.703 66.2438 384.903 61.3438 389.203C56.0438 393.503 52.4438 395.003 50.4438 393.603C50.1438 393.303 49.6438 393.303 48.9438 393.603L47.4438 394.603C46.1438 395.303 45.1438 395.303 44.4438 394.603C43.7438 393.303 41.3438 392.903 37.0438 393.603C31.1438 393.903 26.5438 391.803 23.2438 387.203C19.9438 382.903 18.6438 377.703 19.3438 371.403C19.6438 366.503 22.4438 359.603 27.7438 350.703L34.6438 340.303C36.9438 336.403 38.7438 333.103 40.0438 330.403L40.5438 329.403L41.0438 328.403L43.0438 324.903C44.3438 321.903 45.8438 319.103 47.4438 316.503C52.0438 307.903 56.0438 300.203 59.2438 293.303C69.7438 272.903 74.7438 262.403 74.0438 261.703L73.0438 262.203C72.3438 262.503 71.7438 262.903 71.0438 263.203C69.0438 264.203 67.2438 265.503 65.6438 267.103C60.3438 270.703 54.1438 272.903 46.8438 273.503C38.9438 273.803 31.8438 272.403 25.6438 269.103C10.1438 261.503 1.74375 253.003 0.443754 243.403C-0.556246 238.103 0.143754 233.503 2.44375 229.603L5.44375 225.203C7.04375 222.903 8.24375 220.903 8.94375 219.303C9.94375 217.303 10.9438 215.703 11.9438 214.403C12.6438 214.703 15.5438 212.603 20.8438 208.003C25.7438 203.703 29.0438 200.303 30.7438 197.603C31.7438 196.003 37.8438 189.403 49.0438 177.903L55.4438 171.503C57.4438 169.203 59.2438 167.203 60.8438 165.603C64.4438 161.703 66.6438 159.203 67.2438 158.203C69.5438 154.903 77.6438 146.203 91.4438 132.003C105.544 117.503 113.144 110.303 114.144 110.303C115.444 110.303 116.144 109.603 116.144 108.303C116.144 106.703 116.944 105.803 118.644 105.803C119.344 105.803 120.144 105.603 121.144 105.303C122.744 104.603 124.144 104.003 125.044 103.303C130.644 99.7034 136.244 99.7034 141.844 103.303C142.844 104.003 143.944 104.603 145.344 105.303C146.344 105.603 147.144 105.803 147.844 105.803C148.844 105.203 149.944 105.903 151.644 107.203ZM143.244 6.50338C158.044 14.7034 166.944 23.8034 169.944 33.6034C170.944 36.6034 171.944 39.2034 172.944 41.5034C174.244 44.8034 175.444 47.4034 176.444 49.4034C178.744 54.7034 179.744 58.0034 179.444 59.3034C178.444 61.9034 175.844 65.4034 171.544 69.7034C167.644 74.0034 163.944 76.9034 160.644 78.6034C148.444 84.9034 134.344 83.7034 118.244 75.1034C117.544 74.4034 116.144 73.8034 113.844 73.1034C111.544 72.1034 109.044 71.3034 106.444 70.6034C96.5438 68.0034 89.8438 68.6034 86.2438 72.6034C84.2438 74.6034 83.2438 74.9034 83.2438 73.6034C83.2438 73.3034 83.4438 72.9034 83.7438 72.6034C84.0438 71.9034 84.4438 71.6034 84.7438 71.6034C88.0438 69.3034 85.4438 65.5034 76.8438 60.2034C70.9438 56.9034 66.6438 53.0034 64.0438 48.4034C63.0438 46.8034 62.0438 45.3034 61.0438 44.0034C60.3438 42.7034 60.0438 41.9034 60.0438 41.5034C60.0438 40.8034 61.5438 38.7034 64.4438 35.1034C69.0438 30.2034 76.1438 26.4034 85.6438 23.7034C90.2438 22.4034 95.5438 19.3034 101.444 14.3034C108.044 9.40338 112.444 6.90338 114.744 6.90338C117.044 6.90338 120.044 6.10338 123.644 4.40338C127.244 2.80338 129.044 1.60338 129.044 0.903383C128.944 -1.29662 133.644 0.503382 143.244 6.50338ZM123.944 416.703C123.644 416.003 122.944 416.703 121.944 418.703C120.944 420.303 120.444 422.603 120.444 425.603C120.444 428.603 120.944 430.003 121.944 430.003C122.644 430.003 122.944 428.703 122.944 426.103V423.103C122.944 421.803 123.144 421.003 123.444 420.603C124.144 418.303 124.244 417.003 123.944 416.703ZM213.344 241.903C209.444 229.403 206.644 218.903 204.944 210.303C204.644 208.303 203.144 209.303 200.544 213.303C198.544 216.603 197.744 218.203 198.044 218.203C199.644 217.503 199.044 220.003 196.044 225.603L193.544 230.503L191.044 235.403C189.044 239.003 187.244 241.803 185.644 243.803C184.344 245.103 184.444 245.103 186.144 243.803C187.744 242.503 189.144 242.503 190.044 243.803C190.744 245.103 187.944 249.403 181.644 256.603L178.144 261.003L174.644 264.503C172.644 267.503 171.644 269.403 171.644 270.403C171.644 271.703 170.144 274.703 167.244 279.303C164.644 283.603 162.144 287.003 159.844 289.703C157.844 292.003 155.744 295.503 153.444 300.103C151.144 304.703 150.144 307.303 150.444 308.003C151.144 308.703 150.744 309.803 149.444 311.503C148.444 312.503 147.944 317.103 147.944 325.303C147.944 332.903 147.644 336.703 146.944 336.703C144.644 336.703 143.444 343.803 143.444 357.903C143.444 364.203 142.644 371.403 140.944 379.603C139.244 388.503 137.644 393.703 136.044 395.403C135.344 396.103 135.044 397.203 135.044 398.903V404.303C134.744 408.603 133.744 410.403 132.044 409.703C130.344 409.003 129.444 411.003 129.044 415.603V421.503C129.044 424.103 128.844 425.903 128.544 426.903C127.244 431.503 126.844 435.503 127.544 438.703L128.044 444.103L131.544 439.203C133.544 436.203 137.144 431.803 142.444 425.903C157.244 410.103 176.544 385.103 200.244 350.903C200.944 349.903 203.244 346.503 207.144 340.503L209.644 336.603L212.644 332.203L218.544 323.303C229.044 307.503 235.444 298.503 237.844 296.203C239.444 294.203 243.244 288.803 249.244 279.903C251.244 276.903 253.344 273.703 255.644 270.003C256.644 268.703 257.444 267.403 258.144 266.103L259.144 264.103L260.144 263.103L262.144 260.103L264.144 257.103C265.144 255.103 265.744 253.603 266.144 252.703C267.144 250.703 264.844 251.103 259.244 253.703C253.344 256.703 247.744 258.003 242.444 257.603L234.044 256.603L235.044 262.503C235.744 266.803 236.844 269.403 238.544 270.403C240.544 272.403 240.844 273.503 239.544 273.903C237.544 274.603 234.944 274.103 231.644 272.403C228.344 271.103 225.844 269.303 224.244 267.003C221.244 263.503 217.544 255.103 213.344 241.903ZM184.144 412.203C184.844 410.903 184.944 410.203 184.644 410.203C183.944 410.203 182.544 411.803 180.244 415.103L177.744 419.103C177.044 420.103 176.544 420.703 176.244 421.103C174.944 422.103 174.744 422.703 175.744 423.103C176.744 423.103 178.744 421.003 181.644 416.703C182.744 415.003 183.544 413.503 184.144 412.203ZM204.944 200.503C204.944 199.803 204.644 199.403 203.944 199.003C203.244 198.703 202.644 198.803 201.944 199.503C201.244 200.203 200.944 201.303 200.944 203.003C200.944 205.003 201.744 205.103 203.444 203.503C204.444 202.403 204.944 201.403 204.944 200.503ZM234.044 386.003C234.044 385.703 233.844 385.503 233.544 385.503C232.544 385.503 230.044 387.303 226.144 390.903C222.244 394.803 220.244 397.103 220.244 397.803C220.244 400.103 222.244 398.903 226.144 394.303L228.644 391.803L230.644 389.303L232.144 387.803L232.644 386.803C233.244 386.703 233.744 386.403 234.044 386.003ZM279.944 333.703C279.244 333.003 277.844 334.003 275.544 336.703C272.244 339.303 270.944 342.303 271.644 345.603C271.644 346.603 271.144 347.603 270.144 348.603C269.144 349.303 269.344 349.403 270.644 349.103C271.944 348.803 273.244 347.503 274.544 345.203L276.544 341.703L278.544 338.703C280.444 336.003 280.944 334.403 279.944 333.703ZM286.344 59.3034C287.344 58.3034 288.444 57.2034 289.844 55.8034C291.144 54.5034 292.344 53.5034 293.344 52.8034C294.344 52.1034 294.944 52.0034 295.344 52.3034C296.044 52.6034 294.644 54.1034 291.444 56.7034C288.444 59.3034 286.544 60.6034 285.544 60.6034C285.044 60.8034 285.344 60.3034 286.344 59.3034ZM320.944 36.1034C322.244 37.1034 321.144 38.2034 317.444 39.6034C315.144 40.3034 314.944 39.6034 316.944 37.6034C318.644 35.6034 319.944 35.1034 320.944 36.1034Z" fill="#222222" fill-opacity="0.05"/>
</svg>
